<?xml version="1.0" encoding="UTF-8"?>
<svg version="1.1" xmlns="http://www.w3.org/2000/svg" width="614" height="407">
<path d="M0 0 C23.76 0 47.52 0 72 0 C72.99 1.98 72.99 1.98 74 4 C76.80857748 5.26010343 76.80857748 5.26010343 80 5 C80.94636715 3.77916828 80.94636715 3.77916828 81.91185284 2.53367329 C86.74000656 -1.42759004 91.53473595 -0.67395267 97.59785461 -0.60127258 C98.89252928 -0.60554471 100.18720395 -0.60981683 101.52111119 -0.61421841 C105.11299183 -0.62540011 108.70412719 -0.60539792 112.29591286 -0.58032811 C116.16975317 -0.55874369 120.04355117 -0.56604209 123.91743469 -0.56983948 C130.62857846 -0.57246175 137.33947925 -0.5567691 144.0505619 -0.52865028 C153.75362821 -0.48802179 163.45657698 -0.47499374 173.15971913 -0.46871033 C188.90220033 -0.45776611 204.64455202 -0.42448849 220.38696289 -0.37719727 C235.67959953 -0.33130495 250.97220099 -0.29591144 266.26489258 -0.2746582 C267.20746956 -0.27334459 268.15004655 -0.27203097 269.12118647 -0.27067754 C273.8497996 -0.26415238 278.57841297 -0.25783383 283.30702651 -0.25161803 C322.53810835 -0.19978107 361.76904563 -0.11171234 401 0 C401.27070313 0.64324219 401.54140625 1.28648438 401.8203125 1.94921875 C402.86883231 4.32438173 402.86883231 4.32438173 405.875 4.8125 C408.61800014 4.97708001 410.43512912 4.88783992 413 4 C413.33 2.68 413.66 1.36 414 0 C423.23997552 -0.02312524 432.47994114 -0.04091601 441.71993923 -0.05181217 C446.00999915 -0.05704061 450.30003933 -0.06413753 454.59008789 -0.07543945 C458.726794 -0.08626975 462.86348108 -0.09227714 467.00020027 -0.09487724 C468.58192304 -0.09673124 470.16364471 -0.10035136 471.74535942 -0.10573006 C473.95322838 -0.1129424 476.16101773 -0.11399086 478.36889648 -0.11352539 C479.62798325 -0.115746 480.88707001 -0.11796661 482.18431091 -0.12025452 C485 0 485 0 486 1 C486.29912023 3.01684039 486.56389537 5.03881183 486.8125 7.0625 C488.25157496 16.67384007 491.99068064 24.5112574 499.9296875 30.44140625 C505.43617386 33.8199281 511.06385165 35.13357387 517.375 36.32421875 C518.24125 36.54722656 519.1075 36.77023438 520 37 C521.21445591 39.42891182 521.12924198 41.00719443 521.1328125 43.71875 C521.13410156 44.65074219 521.13539063 45.58273438 521.13671875 46.54296875 C521.13285156 47.51878906 521.12898437 48.49460938 521.125 49.5 C521.12886719 50.47582031 521.13273438 51.45164063 521.13671875 52.45703125 C521.13542969 53.38902344 521.13414062 54.32101563 521.1328125 55.28125 C521.13112061 56.56612305 521.13112061 56.56612305 521.12939453 57.87695312 C521 60 521 60 520 62 C519.05125 62.433125 518.1025 62.86625 517.125 63.3125 C513.56207473 65.23647964 512.4241173 66.23027774 511 70 C510.81597009 72.84967526 511.02921964 75.30534906 512 78 C514.26816301 79.84425989 514.26816301 79.84425989 517 81 C520.34752586 83.45814629 520.95236009 84.73732251 521.70703125 88.8984375 C521.77618335 90.38943632 521.81010417 91.88240034 521.8125 93.375 C521.81914673 94.52464233 521.81914673 94.52464233 521.82592773 95.69750977 C521.67297744 99.48537486 521.49430285 101.4074204 519.015625 104.37890625 C516.73135231 105.83021963 514.47067596 106.91178167 512 108 C510.23708494 111.52583012 510.59602015 115.42896725 511.5625 119.1875 C513.81847378 122.03198868 516.82540874 123.26840477 520 125 C521.63510979 128.27021959 521.22628299 131.84733751 521.25 135.4375 C521.2809375 136.60249023 521.2809375 136.60249023 521.3125 137.79101562 C521.35221422 143.55454116 521.35221422 143.55454116 519.67480469 145.67602539 C518 147 518 147 514.875 148.125 C511.89265717 149.65555032 511.89265717 149.65555032 511.28515625 152.015625 C510.73826298 155.72712542 510.75349827 158.33299531 512.0625 161.875 C514.41901283 164.45956246 516.84060756 165.55766867 520 167 C521.56529043 170.13058086 521.26691314 173.44079008 521.3125 176.875 C521.34150391 177.59558594 521.37050781 178.31617188 521.40039062 179.05859375 C521.44272887 182.5954657 521.31993187 184.57949883 519.1484375 187.43359375 C517 189 517 189 514.3125 190.1875 C511.55828 192.34621297 511.52365711 193.07764108 511.0625 196.4375 C510.73919888 199.91151745 511.05316411 202.06734594 513 205 C514.66664947 206.24268217 514.66664947 206.24268217 516.5625 207.125 C520 209 520 209 521 211 C521.23799705 214.3279587 521.18518365 217.66446087 521.1875 221 C521.19974609 221.928125 521.21199219 222.85625 521.22460938 223.8125 C521.22750977 225.1428125 521.22750977 225.1428125 521.23046875 226.5 C521.23457764 227.3146875 521.23868652 228.129375 521.24291992 228.96875 C521 231 521 231 519 233 C516.9932416 233.49809068 514.96856924 233.92529031 512.9375 234.3125 C503.88056545 236.33181653 497.69350269 239.14404735 492.2890625 246.83984375 C489.1893886 252.03414577 487.57740842 256.26540208 486.875 262.3125 C486.08896797 268.91103203 486.08896797 268.91103203 485 270 C482.83266739 270.09956194 480.66204941 270.12799718 478.49243164 270.12939453 C477.81274826 270.13114685 477.13306488 270.13289917 476.43278503 270.13470459 C474.17521649 270.13912303 471.91772565 270.13618484 469.66015625 270.1328125 C468.09695928 270.13348562 466.53376241 270.13445571 464.9705658 270.13571167 C461.68943285 270.13718869 458.40832707 270.13503423 455.12719727 270.13037109 C450.91579299 270.1246785 446.7044525 270.1279498 442.49305058 270.13394356 C439.26321429 270.13755306 436.03339318 270.13640871 432.80355644 270.13381577 C431.25057404 270.13314733 429.69759026 270.13397202 428.14460945 270.13629532 C425.97535669 270.13882769 423.80620789 270.13497277 421.63696289 270.12939453 C420.40087784 270.12859894 419.16479279 270.12780334 417.89125061 270.12698364 C415 270 415 270 413 269 C412.71125 268.34 412.4225 267.68 412.125 267 C411.18668899 264.86791076 411.18668899 264.86791076 409.1875 264.1875 C406.61235122 263.96677296 404.49777315 264.37555671 402 265 C401.87625 265.639375 401.7525 266.27875 401.625 266.9375 C401.315625 267.9584375 401.315625 267.9584375 401 269 C398.47148871 270.26425564 396.72683762 270.13002579 393.89525127 270.13701439 C392.80753325 270.14208893 391.71981523 270.14716347 390.59913605 270.15239179 C388.79202667 270.15313843 388.79202667 270.15313843 386.94841003 270.15390015 C385.67616068 270.1582824 384.40391132 270.16266465 383.09310895 270.1671797 C379.54999059 270.17916397 376.00688586 270.18479792 372.4637512 270.18936086 C368.64701336 270.19530987 364.83029188 270.20692138 361.01356506 270.21765137 C351.79072066 270.24219027 342.56787083 270.25680407 333.34500381 270.26971143 C330.74128805 270.27342208 328.13757282 270.27739541 325.53385758 270.2814641 C309.37442794 270.30669774 293.21499748 270.32875667 277.05555248 270.34119225 C273.31136764 270.34412207 269.56718282 270.34708372 265.82299805 270.35009766 C264.89236879 270.35084371 263.96173954 270.35158976 263.0029094 270.35235842 C247.91995056 270.36501792 232.83710944 270.3982482 217.75420567 270.43989949 C202.27859758 270.48228592 186.80304982 270.50588341 171.32738382 270.51111281 C162.63439142 270.51453052 153.94158305 270.52632802 145.24864769 270.55921555 C137.846876 270.58717199 130.44532603 270.59823484 123.04350563 270.58702008 C119.26557299 270.58182216 115.488105 270.58479277 111.71023941 270.60948563 C107.61734831 270.63601479 103.52548644 270.62395671 99.43254089 270.60800171 C98.23449347 270.6218838 97.03644605 270.63576588 95.80209416 270.65006864 C86.86950155 270.56386938 86.86950155 270.56386938 83.85187244 267.52059364 C83.24075454 266.68879774 82.62963663 265.85700184 82 265 C79.50589084 263.86631402 78.58217868 263.79987608 76 264.6875 C73.8831088 265.93775692 73.8831088 265.93775692 72.29153442 268.05166626 C69.20716565 270.67409239 67.34992033 270.49542949 63.33544922 270.48583984 C62.6748349 270.48963654 62.01422058 270.49343323 61.33358765 270.49734497 C59.15679985 270.50473612 56.98135596 270.48339526 54.8046875 270.4609375 C53.29062049 270.45855262 51.77655049 270.45764785 50.26248169 270.4581604 C47.09325573 270.45503517 43.92448306 270.4384887 40.75537109 270.41162109 C36.68856088 270.37758324 32.62224719 270.36999427 28.5553112 270.37151146 C25.43095134 270.37096835 22.30670051 270.36001172 19.18237686 270.34550858 C17.68243357 270.33913572 16.18247792 270.33520054 14.68252182 270.33372116 C12.59005298 270.32939646 10.49811659 270.31191619 8.40576172 270.29052734 C6.61850174 270.27909195 6.61850174 270.27909195 4.7951355 270.26742554 C2 270 2 270 0 268 C-0.47600094 265.67804422 -0.88178524 263.34146822 -1.25 261 C-2.86744899 252.13158867 -5.71310318 245.02208957 -13.25 239.5625 C-17.92828479 236.76655539 -22.74692024 235.31728606 -28 234 C-30.31 233.34 -32.62 232.68 -35 232 C-35 224.41 -35 216.82 -35 209 C-28 205 -28 205 -26 205 C-25.77668801 203.41870971 -25.57195356 201.83478911 -25.375 200.25 C-25.25898437 199.36828125 -25.14296875 198.4865625 -25.0234375 197.578125 C-24.99725335 194.69786899 -25.35126478 193.34647583 -27 191 C-29.30965848 189.94647157 -31.6429774 188.94280904 -34 188 C-35.17426264 185.65147472 -35.11508173 184.26225935 -35.09765625 181.6484375 C-35.09443359 180.79765625 -35.09121094 179.946875 -35.08789062 179.0703125 C-35.07532227 177.73613281 -35.07532227 177.73613281 -35.0625 176.375 C-35.05798828 175.4778125 -35.05347656 174.580625 -35.04882812 173.65625 C-35.03702591 171.43743352 -35.02056155 169.21874982 -35 167 C-34.44062744 166.73807861 -33.88125488 166.47615723 -33.30493164 166.20629883 C-32.57653076 165.85591553 -31.84812988 165.50553223 -31.09765625 165.14453125 C-30.37328369 164.80010986 -29.64891113 164.45568848 -28.90258789 164.10083008 C-26.8024915 163.07060411 -26.8024915 163.07060411 -25.4375 160.6875 C-24.77359651 156.60923569 -24.80601017 152.75956395 -27.1875 149.25 C-29.65485994 147.54837245 -32.31452776 146.32274952 -35 145 C-35.23329086 141.77206203 -35.37467674 138.54628768 -35.5 135.3125 C-35.56703125 134.40048828 -35.6340625 133.48847656 -35.703125 132.54882812 C-35.78248389 129.82086642 -35.75434602 127.62722458 -35 125 C-33.08418312 123.22294056 -31.30167385 122.19989224 -28.92773438 121.12182617 C-26.5203086 119.72084828 -25.91276128 118.60593346 -25 116 C-25.2292917 111.36034574 -25.2292917 111.36034574 -27.1875 107.25 C-29.62796543 105.56692039 -32.34841504 104.32579248 -35 103 C-35 96.4 -35 89.8 -35 83 C-32.36 81.68 -29.72 80.36 -27 79 C-24.9970442 76.03562542 -25.00743682 74.13634178 -24.8125 70.5625 C-26.21695956 66.34912131 -26.77748768 66.39713119 -30.53125 64.51171875 C-33.46393479 62.64504115 -34.77331232 61.76671451 -35.77026367 58.39477539 C-35.95831721 55.30356517 -35.88519856 52.34023968 -35.6875 49.25 C-35.66365234 48.19683594 -35.63980469 47.14367187 -35.61523438 46.05859375 C-35.35310943 38.35310943 -35.35310943 38.35310943 -33 36 C-30.6796875 35.5078125 -30.6796875 35.5078125 -27.875 35.125 C-19.8409706 33.7789846 -12.3461902 30.61457152 -7.43359375 23.83984375 C-3.9212219 18.36392909 -1.90495929 13.42194005 -1 7 C-0.67 4.69 -0.34 2.38 0 0 Z " fill="#1B1D42" transform="translate(64,76)"/>
<path d="M0 0 C9.23997552 -0.02312524 18.47994114 -0.04091601 27.71993923 -0.05181217 C32.00999915 -0.05704061 36.30003933 -0.06413753 40.59008789 -0.07543945 C44.726794 -0.08626975 48.86348108 -0.09227714 53.00020027 -0.09487724 C54.58192304 -0.09673124 56.16364471 -0.10035136 57.74535942 -0.10573006 C59.95322838 -0.1129424 62.16101773 -0.11399086 64.36889648 -0.11352539 C65.62798325 -0.115746 66.88707001 -0.11796661 68.18431091 -0.12025452 C71 0 71 0 72 1 C72.29912023 3.01684039 72.56389537 5.03881183 72.8125 7.0625 C74.25157496 16.67384007 77.99068064 24.5112574 85.9296875 30.44140625 C91.43617386 33.8199281 97.06385165 35.13357387 103.375 36.32421875 C104.24125 36.54722656 105.1075 36.77023438 106 37 C107.21445591 39.42891182 107.12924198 41.00719443 107.1328125 43.71875 C107.13410156 44.65074219 107.13539063 45.58273438 107.13671875 46.54296875 C107.13285156 47.51878906 107.12898437 48.49460938 107.125 49.5 C107.12886719 50.47582031 107.13273438 51.45164063 107.13671875 52.45703125 C107.13542969 53.38902344 107.13414062 54.32101563 107.1328125 55.28125 C107.13168457 56.13783203 107.13055664 56.99441406 107.12939453 57.87695312 C107 60 107 60 106 62 C105.05125 62.433125 104.1025 62.86625 103.125 63.3125 C99.56207473 65.23647964 98.4241173 66.23027774 97 70 C96.81597009 72.84967526 97.02921964 75.30534906 98 78 C100.26816301 79.84425989 100.26816301 79.84425989 103 81 C106.34752586 83.45814629 106.95236009 84.73732251 107.70703125 88.8984375 C107.77618335 90.38943632 107.81010417 91.88240034 107.8125 93.375 C107.81693115 94.14142822 107.8213623 94.90785645 107.82592773 95.69750977 C107.67297744 99.48537486 107.49430285 101.4074204 105.015625 104.37890625 C102.73135231 105.83021963 100.47067596 106.91178167 98 108 C96.23708494 111.52583012 96.59602015 115.42896725 97.5625 119.1875 C99.81847378 122.03198868 102.82540874 123.26840477 106 125 C107.63510979 128.27021959 107.22628299 131.84733751 107.25 135.4375 C107.270625 136.21416016 107.29125 136.99082031 107.3125 137.79101562 C107.35221422 143.55454116 107.35221422 143.55454116 105.67480469 145.67602539 C104 147 104 147 100.875 148.125 C97.89265717 149.65555032 97.89265717 149.65555032 97.28515625 152.015625 C96.73826298 155.72712542 96.75349827 158.33299531 98.0625 161.875 C100.41901283 164.45956246 102.84060756 165.55766867 106 167 C107.56529043 170.13058086 107.26691314 173.44079008 107.3125 176.875 C107.35600586 177.95587891 107.35600586 177.95587891 107.40039062 179.05859375 C107.44272887 182.5954657 107.31993187 184.57949883 105.1484375 187.43359375 C103 189 103 189 100.3125 190.1875 C97.55828 192.34621297 97.52365711 193.07764108 97.0625 196.4375 C96.73919888 199.91151745 97.05316411 202.06734594 99 205 C100.66664947 206.24268217 100.66664947 206.24268217 102.5625 207.125 C106 209 106 209 107 211 C107.23799705 214.3279587 107.18518365 217.66446087 107.1875 221 C107.19974609 221.928125 107.21199219 222.85625 107.22460938 223.8125 C107.22654297 224.699375 107.22847656 225.58625 107.23046875 226.5 C107.23457764 227.3146875 107.23868652 228.129375 107.24291992 228.96875 C107 231 107 231 105 233 C102.9932416 233.49809068 100.96856924 233.92529031 98.9375 234.3125 C89.88056545 236.33181653 83.69350269 239.14404735 78.2890625 246.83984375 C75.1893886 252.03414577 73.57740842 256.26540208 72.875 262.3125 C72.08896797 268.91103203 72.08896797 268.91103203 71 270 C68.83266739 270.09956194 66.66204941 270.12799718 64.49243164 270.12939453 C63.81274826 270.13114685 63.13306488 270.13289917 62.43278503 270.13470459 C60.17521649 270.13912303 57.91772565 270.13618484 55.66015625 270.1328125 C54.09695928 270.13348562 52.53376241 270.13445571 50.9705658 270.13571167 C47.68943285 270.13718869 44.40832707 270.13503423 41.12719727 270.13037109 C36.91579299 270.1246785 32.7044525 270.1279498 28.49305058 270.13394356 C25.26321429 270.13755306 22.03339318 270.13640871 18.80355644 270.13381577 C17.25057404 270.13314733 15.69759026 270.13397202 14.14460945 270.13629532 C11.97535669 270.13882769 9.80620789 270.13497277 7.63696289 270.12939453 C6.40087784 270.12859894 5.16479279 270.12780334 3.89125061 270.12698364 C1 270 1 270 -1 269 C-1.20625 268.34 -1.4125 267.68 -1.625 267 C-2.79365917 264.82949501 -2.79365917 264.82949501 -4.90625 264.515625 C-6.93030541 264.27330851 -8.96572061 264.13124383 -11 264 C-10.6247121 261.27916273 -10.31117508 260.24894007 -8.125 258.5 C-7.42375 258.005 -6.7225 257.51 -6 257 C-2.52609028 252.75411034 -1.87901108 250.37295892 -1.9375 244.875 C-1.94652344 243.77929688 -1.95554687 242.68359375 -1.96484375 241.5546875 C-1.98224609 240.29011719 -1.98224609 240.29011719 -2 239 C-5.3 238.34 -8.6 237.68 -12 237 C-12 236.01 -12 235.02 -12 234 C-8.04 233.01 -8.04 233.01 -4 232 C-4 231.34 -4 230.68 -4 230 C-3.34 229.67 -2.68 229.34 -2 229 C-2 220.09 -2 211.18 -2 202 C-4.64 201.67 -7.28 201.34 -10 201 C-10 201.66 -10 202.32 -10 203 C-10.66 203 -11.32 203 -12 203 C-11.67 201.02 -11.34 199.04 -11 197 C-9.9275 197.04125 -8.855 197.0825 -7.75 197.125 C-4.34252515 197.0114175 -2.79260369 196.78726636 0 195 C-0.16298584 194.29335205 -0.32597168 193.5867041 -0.49389648 192.85864258 C-1.01353414 189.92355461 -1.11358349 187.24011307 -1.09765625 184.26171875 C-1.09443359 183.19501953 -1.09121094 182.12832031 -1.08789062 181.02929688 C-1.07951172 179.92650391 -1.07113281 178.82371094 -1.0625 177.6875 C-1.05798828 176.56537109 -1.05347656 175.44324219 -1.04882812 174.28710938 C-1.03707313 171.5246849 -1.02064077 168.76237002 -1 166 C-3.31 165.67 -5.62 165.34 -8 165 C-8.33 163.68 -8.66 162.36 -9 161 C-7.35 161 -5.7 161 -4 161 C-1.91720166 157.57382477 -1.75652397 154.92119811 -1.77294922 150.94628906 C-1.77310028 149.72532532 -1.77325134 148.50436157 -1.77340698 147.24639893 C-1.78372955 145.93274353 -1.79405212 144.61908813 -1.8046875 143.265625 C-1.80841958 141.90370898 -1.81126563 140.54179027 -1.81326294 139.17987061 C-1.82088406 135.60252414 -1.84051931 132.02534115 -1.8626709 128.44805908 C-1.88316222 124.7948223 -1.89227167 121.14155899 -1.90234375 117.48828125 C-1.92376678 110.32544647 -1.95788418 103.16274617 -2 96 C-3.65 95.67 -5.3 95.34 -7 95 C-6.319375 94.443125 -6.319375 94.443125 -5.625 93.875 C-0.96439728 88.49738147 -1.60996718 81.0886005 -1.4375 74.375 C-1.37744054 72.3201997 -1.31378285 70.26550062 -1.24609375 68.2109375 C-1.21020142 66.85427979 -1.21020142 66.85427979 -1.17358398 65.47021484 C-1 63 -1 63 -0.42211914 60.79931641 C0.22287347 58.91268133 0.22287347 58.91268133 -1 57 C-5.455 57.495 -5.455 57.495 -10 58 C-10 56.68 -10 55.36 -10 54 C-8.865625 53.525625 -7.73125 53.05125 -6.5625 52.5625 C-3.24259834 51.36377917 -3.24259834 51.36377917 -2 50 C-1.89918913 47.64768301 -1.86027061 45.32538053 -1.8671875 42.97265625 C-1.86623077 42.26854111 -1.86527405 41.56442596 -1.86428833 40.838974 C-1.86360659 39.34683137 -1.86546048 37.85468579 -1.86962891 36.36254883 C-1.87496937 34.07561582 -1.8696879 31.78887992 -1.86328125 29.50195312 C-1.86394219 28.05468707 -1.86522368 26.60742113 -1.8671875 25.16015625 C-1.86516327 24.47365494 -1.86313904 23.78715363 -1.86105347 23.07984924 C-1.83346741 19.41663176 -1.83346741 19.41663176 -3 16 C-2.67 15.67 -2.34 15.34 -2 15 C-2.33 14.01 -2.66 13.02 -3 12 C-3.66 11.67 -4.32 11.34 -5 11 C-5 10.01 -5 9.02 -5 8 C-5.99 7.67 -6.98 7.34 -8 7 C-7.01 7 -6.02 7 -5 7 C-5 6.34 -5 5.68 -5 5 C-3.68 4.67 -2.36 4.34 -1 4 C-0.67 2.68 -0.34 1.36 0 0 Z " fill="#1C1F43" transform="translate(478,76)"/>
<path d="M0 0 C2.58443352 1.14863712 4.79731102 2.29018301 7.1875 3.75 C7.86022949 4.14541992 8.53295898 4.54083984 9.22607422 4.94824219 C10.69534991 5.81534478 12.16036347 6.68970005 13.62158203 7.5703125 C16.16239018 9.09761413 18.71857542 10.59675183 21.27734375 12.09375 C23.06056403 13.14470039 24.8431258 14.19676898 26.625 15.25 C27.88606567 15.9920166 27.88606567 15.9920166 29.17260742 16.74902344 C29.9741626 17.22887695 30.77571777 17.70873047 31.6015625 18.203125 C32.30619629 18.62239258 33.01083008 19.04166016 33.73681641 19.47363281 C34.48366699 19.97733398 35.23051758 20.48103516 36 21 C37.06500732 21.65516602 38.13001465 22.31033203 39.22729492 22.98535156 C41.25013991 24.71831421 41.9253395 25.68923022 42.5534668 28.30377197 C42.77927294 31.22959911 42.80524205 34.09696208 42.76171875 37.03125 C42.76508743 38.0999231 42.76845612 39.16859619 42.77192688 40.26965332 C42.77162831 42.5256838 42.75640568 44.78175498 42.72729492 47.03759766 C42.68763142 50.48856553 42.70658712 53.93568799 42.73242188 57.38671875 C42.72486242 59.58074406 42.71390861 61.77476085 42.69921875 63.96875 C42.7096949 65.51423523 42.7096949 65.51423523 42.72038269 67.09094238 C42.57938649 74.25269686 42.57938649 74.25269686 39.61181641 78.08032227 C35.3287724 81.2283476 30.88134876 83.9370327 26.30126953 86.63232422 C23.53893153 88.27401926 20.80030918 89.95300629 18.05859375 91.62890625 C15.91470437 92.92033699 13.77016783 94.21069397 11.625 95.5 C10.59076904 96.13607178 9.55653809 96.77214355 8.4909668 97.42749023 C7.49621338 98.01860596 6.50145996 98.60972168 5.4765625 99.21875 C4.59049316 99.75435547 3.70442383 100.28996094 2.79150391 100.84179688 C-0.79518235 102.32992348 -3.1379738 102.45081714 -7 102 C-9.65721539 100.77297002 -11.94533427 99.55788118 -14.40234375 98.01953125 C-15.08373917 97.60966476 -15.76513458 97.19979828 -16.46717834 96.7775116 C-18.6329819 95.4700885 -20.78507343 94.14180505 -22.9375 92.8125 C-24.37870884 91.93805322 -25.82075977 91.06499274 -27.26367188 90.19335938 C-30.6217044 88.16024185 -33.96664616 86.10690045 -37.30584717 84.04302979 C-38.78225614 83.13405717 -40.26578265 82.23666543 -41.75048828 81.34130859 C-46.88833287 78.22333427 -46.88833287 78.22333427 -48 76 C-48.11023157 74.41826561 -48.15909786 72.83205172 -48.17700195 71.24658203 C-48.19625481 69.76461838 -48.19625481 69.76461838 -48.21589661 68.25271606 C-48.22328354 67.18189789 -48.23067047 66.11107971 -48.23828125 65.0078125 C-48.246353 63.91032684 -48.25442474 62.81284119 -48.26274109 61.68209839 C-48.2765879 59.35692936 -48.28730737 57.03173995 -48.29516602 54.70654297 C-48.31239633 51.14641991 -48.35628028 47.58722106 -48.40039062 44.02734375 C-48.41051572 41.77084018 -48.41903239 39.5143287 -48.42578125 37.2578125 C-48.44328934 36.19104279 -48.46079742 35.12427307 -48.47883606 34.025177 C-48.45712297 26.64579142 -48.45712297 26.64579142 -46.17041016 23.4152832 C-43.20630325 21.48244544 -40.18375436 19.72388169 -37.0625 18.0625 C-32.10524987 15.37408901 -27.26875104 12.5734026 -22.5234375 9.5234375 C-21.596521 8.93038818 -20.66960449 8.33733887 -19.71459961 7.72631836 C-17.89205017 6.55235618 -16.0774014 5.36601769 -14.27172852 4.16625977 C-9.39593484 1.04096587 -5.97221596 -1.08649469 0 0 Z " fill="#FD5E54" transform="translate(310,154)"/>
<path d="M0 0 C1.29467467 -0.00427212 2.58934934 -0.00854425 3.92325658 -0.01294583 C7.51513721 -0.02412753 11.10627258 -0.00412533 14.69805825 0.02094448 C18.57189856 0.04252889 22.44569655 0.03523049 26.31958008 0.03143311 C33.03072385 0.02881083 39.74162464 0.04450348 46.45270729 0.0726223 C56.1557736 0.1132508 65.85872237 0.12627884 75.56186452 0.13256226 C91.30434572 0.14350647 107.0466974 0.1767841 122.78910828 0.22407532 C138.08174491 0.26996763 153.37434637 0.30536114 168.66703796 0.32661438 C170.08090344 0.32858481 170.08090344 0.32858481 171.52333186 0.33059504 C176.25194498 0.33712021 180.98055835 0.34343875 185.70917189 0.34965456 C224.94025374 0.40149151 264.17119102 0.48956025 303.40214539 0.60127258 C303.66769226 1.23549133 303.93323914 1.86971008 304.20683289 2.52314758 C305.31085032 4.93913484 305.31085032 4.93913484 308.52714539 5.85127258 C309.47589539 6.09877258 310.42464539 6.34627258 311.40214539 6.60127258 C311.40214539 6.93127258 311.40214539 7.26127258 311.40214539 7.60127258 C304.74561288 6.97329782 304.74561288 6.97329782 302.99956459 5.08207363 C300.74017039 2.98762448 299.20291857 3.22426529 296.15593815 3.22095585 C295.06212898 3.21251591 293.96831982 3.20407597 292.84136492 3.19538027 C291.0317652 3.20439534 291.0317652 3.20439534 289.18560791 3.21359253 C287.90771501 3.20820699 286.62982211 3.20282145 285.31320518 3.19727272 C281.75894046 3.18276531 278.20490657 3.18707919 274.65062892 3.19443953 C270.82028111 3.1991559 266.98998434 3.18667497 263.15965271 3.17642212 C255.65290194 3.15919855 248.14623474 3.15840146 240.63946933 3.16363502 C234.53973744 3.16767138 228.44003031 3.16623954 222.34029961 3.16088676 C221.4731729 3.16013834 220.60604619 3.15938992 219.71264292 3.15861882 C217.95124944 3.15708739 216.18985597 3.15554904 214.4284625 3.15400385 C197.89872351 3.14026592 181.36903181 3.14572555 164.83929389 3.15718906 C149.70723467 3.16712266 134.5752977 3.1541809 119.44325734 3.13025487 C103.91675992 3.10588955 88.39031949 3.09624968 72.86380333 3.1029076 C64.14239729 3.10640556 55.4210853 3.10412984 46.69969368 3.08665657 C39.27523016 3.07196661 31.85092692 3.07125695 24.42646665 3.08872748 C20.63657616 3.09726651 16.84697236 3.09931688 13.05709648 3.08407593 C8.9530518 3.06777554 4.84970488 3.08231473 0.7456665 3.10006714 C-0.45850259 3.09046213 -1.66267168 3.08085713 -2.90333074 3.07096106 C-3.99974766 3.08077535 -5.09616457 3.09058964 -6.22580624 3.10070133 C-7.17348084 3.10080867 -8.12115545 3.10091601 -9.09754747 3.10102659 C-12.31422838 3.74460022 -13.41018987 5.23701292 -15.59785461 7.60127258 C-18.34785461 7.85127258 -18.34785461 7.85127258 -20.59785461 7.60127258 C-19.60785461 6.94127258 -18.61785461 6.28127258 -17.59785461 5.60127258 C-16.97081037 4.74742383 -16.34376612 3.89357508 -15.69772053 3.01385212 C-10.82964986 -0.77489488 -6.00090707 -0.07193434 0 0 Z " fill="#A3A7B5" transform="translate(161.5978546142578,75.39872741699219)"/>
<path d="M0 0 C1.98 0.66 3.96 1.32 6 2 C6 2.66 6 3.32 6 4 C109.29 4.33 212.58 4.66 319 5 C319.33 4.01 319.66 3.02 320 2 C320.33 2.66 320.66 3.32 321 4 C319.28266895 6.16053585 318.40146009 6.93584005 315.63260472 7.37834883 C314.21670609 7.38070563 314.21670609 7.38070563 312.77220345 7.38311005 C311.68249437 7.39216669 310.5927853 7.40122333 309.47005475 7.41055441 C308.268228 7.40522648 307.06640126 7.39989856 305.82815552 7.39440918 C303.91849984 7.40354584 303.91849984 7.40354584 301.97026527 7.41286707 C298.42933973 7.42931983 294.88863605 7.42693792 291.34768558 7.4214921 C287.53162807 7.41882842 283.71563059 7.43334126 279.89959717 7.44558716 C272.42059076 7.46667186 264.94166182 7.47118026 257.46262921 7.46939927 C251.3848348 7.4680931 245.30706461 7.47188835 239.22927475 7.47932434 C237.48045123 7.48142348 235.7316277 7.48352108 233.98280418 7.48561716 C233.11243801 7.48666069 232.24207184 7.48770422 231.34533094 7.48877937 C214.87326911 7.50769419 198.40125178 7.50662781 181.92918359 7.49981004 C166.85274257 7.49423435 151.77647146 7.51505886 136.70007016 7.54817051 C121.2289366 7.581886 105.75788448 7.59707847 90.28671348 7.59245348 C81.59710701 7.59020652 72.90765757 7.59548477 64.21808243 7.62034607 C56.81997469 7.64133168 49.42211006 7.64497867 42.02399243 7.62604648 C38.24809247 7.61687129 34.47264612 7.61579927 30.69678116 7.63640213 C26.60610241 7.65847618 22.51649841 7.64193808 18.42581177 7.62145996 C16.62976381 7.64023673 16.62976381 7.64023673 14.79743207 7.65939283 C5.86723692 7.56310859 5.86723692 7.56310859 2.78588676 4.58615875 C1 2 1 2 0 0 Z " fill="#58595E" transform="translate(145,339)"/>
<path d="M0 0 C4.70588235 0.70588235 4.70588235 0.70588235 6 2 C6.10422639 3.79434009 6.1385409 5.5927847 6.14526367 7.39013672 C6.15164352 8.54158173 6.15802338 9.69302673 6.16459656 10.87936401 C6.16570938 12.13347076 6.1668222 13.38757751 6.16796875 14.6796875 C6.17129715 15.95852814 6.17462555 17.23736877 6.17805481 18.55496216 C6.18405263 21.266956 6.1858941 23.97891795 6.18530273 26.69091797 C6.1852012 30.16690809 6.19884144 33.64269354 6.21607494 37.11863518 C6.22986782 40.43065588 6.22928378 43.74263842 6.23046875 47.0546875 C6.24124702 48.92977493 6.24124702 48.92977493 6.25224304 50.84274292 C6.24916641 52.00049225 6.24608978 53.15824158 6.24291992 54.35107422 C6.24434494 55.37175995 6.24576996 56.39244568 6.24723816 57.44406128 C6 60 6 60 4 63 C2.35 62.67 0.7 62.34 -1 62 C-1.02312764 54.06386213 -1.04091723 46.12773824 -1.05181217 38.19157505 C-1.05704008 34.50685502 -1.06413605 30.82215797 -1.07543945 27.13745117 C-1.08627162 23.58429169 -1.09227753 20.03115437 -1.09487724 16.47797966 C-1.0967309 15.11954334 -1.10035038 13.76110829 -1.10573006 12.40268135 C-1.11294475 10.50617777 -1.11340809 8.60965207 -1.11352539 6.71313477 C-1.115746 5.63169693 -1.11796661 4.55025909 -1.12025452 3.43605042 C-1 1 -1 1 0 0 Z " fill="#E65E55" transform="translate(140,172)"/>
<path d="M0 0 C2.625 0.375 2.625 0.375 5 1 C5.02312792 8.80575195 5.04091738 16.61149595 5.05181217 24.41727352 C5.05704002 28.0414596 5.06413587 31.6656223 5.07543945 35.28979492 C5.08627184 38.78459975 5.09227758 42.27938204 5.09487724 45.77420235 C5.09763551 47.76239389 5.10544688 49.75057631 5.11329651 51.73875427 C5.11337204 52.93992386 5.11344757 54.14109344 5.11352539 55.37866211 C5.115746 56.44233505 5.11796661 57.506008 5.12025452 58.60191345 C5 61 5 61 4 62 C1.5 62.125 1.5 62.125 -1 62 C-2.74053132 60.25946868 -2.1365843 57.86996997 -2.14526367 55.50219727 C-2.15164352 54.32750381 -2.15802338 53.15281036 -2.16459656 51.94252014 C-2.16570938 50.66340256 -2.1668222 49.38428497 -2.16796875 48.06640625 C-2.17129715 46.76299789 -2.17462555 45.45958954 -2.17805481 44.11668396 C-2.184052 41.35341565 -2.18589412 38.59017865 -2.18530273 35.8269043 C-2.18520109 32.28131527 -2.19885231 28.73592643 -2.21607494 25.19038486 C-2.22985013 21.81572201 -2.22928323 18.44109691 -2.23046875 15.06640625 C-2.23765427 13.7893129 -2.24483978 12.51221954 -2.25224304 11.19642639 C-2.24916641 10.01858078 -2.24608978 8.84073517 -2.24291992 7.62719727 C-2.24434494 6.58652603 -2.24576996 5.5458548 -2.24723816 4.47364807 C-2 2 -2 2 0 0 Z " fill="#DF635D" transform="translate(470,172)"/>
<path d="M0 0 C2.875 0.5 2.875 0.5 5.875 2.5 C5.875 1.84 5.875 1.18 5.875 0.5 C7.525 0.5 9.175 0.5 10.875 0.5 C10.875 6.44 10.875 12.38 10.875 18.5 C9.225 18.5 7.575 18.5 5.875 18.5 C5.875 17.84 5.875 17.18 5.875 16.5 C4.885 17.16 3.895 17.82 2.875 18.5 C-0.0625 18.875 -0.0625 18.875 -3.125 18.5 C-6.36442475 15.87343939 -7.93394864 13.90104327 -8.5 9.75 C-7.88818821 4.44763112 -5.40763113 0.86522098 0 0 Z " fill="#F5F5F5" transform="translate(253.125,310.5)"/>
<path d="M0 0 C0.66 0 1.32 0 2 0 C2 2.64 2 5.28 2 8 C2.515625 7.484375 3.03125 6.96875 3.5625 6.4375 C6 5 6 5 9.5 5.0625 C13.37694159 6.1009665 14.83860413 6.62822244 17 10 C17.7099846 14.9698922 17.79117716 16.84919686 14.9375 21 C11.3131706 23.46762853 9.302317 23.56823055 5 23 C4.34 22.34 3.68 21.68 3 21 C2.67 21.66 2.34 22.32 2 23 C1.34 23 0.68 23 0 23 C0 15.41 0 7.82 0 0 Z " fill="#F7F7F7" transform="translate(372,306)"/>
<path d="M0 0 C17.49 0 34.98 0 53 0 C53 1.65 53 3.3 53 5 C35.51 5 18.02 5 0 5 C0 3.35 0 1.7 0 0 Z " fill="#E2615E" transform="translate(387,204)"/>
<path d="M0 0 C17.49 0 34.98 0 53 0 C52.67 1.65 52.34 3.3 52 5 C35.17 5 18.34 5 1 5 C0.67 3.35 0.34 1.7 0 0 Z " fill="#E2615F" transform="translate(174,204)"/>
<path d="M0 0 C1.65 0 3.3 0 5 0 C5.33 2.64 5.66 5.28 6 8 C6.54527344 7.13375 6.54527344 7.13375 7.1015625 6.25 C8.62698908 3.99706228 10.10048075 1.95085761 12 0 C15.375 -0.5 15.375 -0.5 18 0 C16.85109585 2.58503435 15.69819007 4.34492563 13.8125 6.5 C11.76090257 8.74505608 11.76090257 8.74505608 12.1953125 10.89453125 C13.14277571 13.37357333 14.41465979 15.11114342 16.0625 17.1875 C19 20.91294118 19 20.91294118 19 22 C16.375 22.4375 16.375 22.4375 13 22 C10.61001246 19.94913231 8.6932063 17.65389073 7 15 C7 14.34 7 13.68 7 13 C6.34 13 5.68 13 5 13 C5 15.97 5 18.94 5 22 C3.35 22 1.7 22 0 22 C0 14.74 0 7.48 0 0 Z " fill="#FAFAFA" transform="translate(224,307)"/>
<path d="M0 0 C2.5 0.125 2.5 0.125 3.5 1.125 C3.58843793 3.57330426 3.61528752 5.99320599 3.59765625 8.44140625 C3.5962413 9.17246078 3.59482635 9.90351532 3.59336853 10.65672302 C3.58775408 13.00035632 3.57519922 15.34389539 3.5625 17.6875 C3.55748686 19.27278508 3.55292363 20.85807166 3.54882812 22.44335938 C3.53777997 26.3372761 3.52050572 30.23112205 3.5 34.125 C1.50045254 34.16754356 -0.50041636 34.16580783 -2.5 34.125 C-4.17673649 32.44826351 -3.62787817 30.39644924 -3.63894653 28.15844727 C-3.6369223 27.46678467 -3.63489807 26.77512207 -3.6328125 26.0625 C-3.63376923 25.35601318 -3.63472595 24.64952637 -3.63571167 23.92163086 C-3.63639333 22.42529207 -3.63454005 20.92895033 -3.63037109 19.43261719 C-3.62502257 17.13469843 -3.63031651 14.83697514 -3.63671875 12.5390625 C-3.63605797 11.08854123 -3.6347768 9.63802009 -3.6328125 8.1875 C-3.63483673 7.4958374 -3.63686096 6.8041748 -3.63894653 6.09155273 C-3.60971249 0.18048562 -3.60971249 0.18048562 0 0 Z " fill="#F96054" transform="translate(142.5,92.875)"/>
<path d="M0 0 C2.5 0.125 2.5 0.125 3.5 1.125 C3.6007812 3.48898468 3.63973215 5.82311311 3.6328125 8.1875 C3.63376923 8.89398682 3.63472595 9.60047363 3.63571167 10.32836914 C3.63639333 11.82470793 3.63454005 13.32104967 3.63037109 14.81738281 C3.62502257 17.11530157 3.63031651 19.41302486 3.63671875 21.7109375 C3.63605797 23.16145877 3.6347768 24.61197991 3.6328125 26.0625 C3.63483673 26.7541626 3.63686096 27.4458252 3.63894653 28.15844727 C3.61495224 33.01004776 3.61495224 33.01004776 2.5 34.125 C0.83382885 34.16563832 -0.83388095 34.167721 -2.5 34.125 C-3.98125044 31.16249913 -3.62990684 28.48587105 -3.6328125 25.18359375 C-3.63376923 24.50071793 -3.63472595 23.8178421 -3.63571167 23.11427307 C-3.63639223 21.67098905 -3.6345466 20.22770197 -3.63037109 18.78442383 C-3.62501282 16.56780172 -3.63032443 14.35138148 -3.63671875 12.13476562 C-3.63605811 10.73437455 -3.63477723 9.3339836 -3.6328125 7.93359375 C-3.63168457 6.65282959 -3.63055664 5.37206543 -3.62939453 4.05249023 C-3.45791717 0.17289586 -3.45791717 0.17289586 0 0 Z " fill="#EE645A" transform="translate(471.5,92.875)"/>
<path d="M0 0 C7.4930168 -0.07593983 14.98593471 -0.12855332 22.47924805 -0.16479492 C25.02941598 -0.17990005 27.57955786 -0.20038533 30.12963867 -0.22631836 C33.79091819 -0.26262504 37.45185485 -0.27970915 41.11328125 -0.29296875 C42.2571077 -0.30845261 43.40093414 -0.32393646 44.579422 -0.33988953 C45.64029526 -0.34011612 46.70116852 -0.34034271 47.79418945 -0.34057617 C48.72906693 -0.34723801 49.6639444 -0.35389984 50.62715149 -0.36076355 C53.40942609 0.06224839 54.27783372 0.83201813 56 3 C55.34 4.98 54.68 6.96 54 9 C36.84 9 19.68 9 2 9 C1.67 8.34 1.34 7.68 1 7 C26.245 6.505 26.245 6.505 52 6 C52.33 4.68 52.66 3.36 53 2 C35.51 2 18.02 2 0 2 C0 1.34 0 0.68 0 0 Z " fill="#391932" transform="translate(174,202)"/>
<path d="M0 0 C1.875 0.6875 1.875 0.6875 2.875 1.6875 C3.12801239 5.82712283 3.06022549 9.97855996 3.0625 14.125 C3.07474609 15.29611328 3.08699219 16.46722656 3.09960938 17.67382812 C3.10250977 19.34928711 3.10250977 19.34928711 3.10546875 21.05859375 C3.10957764 22.08911865 3.11368652 23.11964355 3.11791992 24.18139648 C2.875 26.6875 2.875 26.6875 0.875 28.6875 C-2.25 28.3125 -2.25 28.3125 -5.125 27.6875 C-5.2117562 23.39595978 -5.2653089 19.10464332 -5.3125 14.8125 C-5.33763672 13.58917969 -5.36277344 12.36585938 -5.38867188 11.10546875 C-5.39833984 9.93886719 -5.40800781 8.77226562 -5.41796875 7.5703125 C-5.4336792 6.49152832 -5.44938965 5.41274414 -5.46557617 4.30126953 C-5.35318604 3.43872559 -5.2407959 2.57618164 -5.125 1.6875 C-2.125 -0.3125 -2.125 -0.3125 0 0 Z " fill="#D35853" transform="translate(143.125,135.3125)"/>
<path d="M0 0 C2.5 0.125 2.5 0.125 3.5 1.125 C3.59971786 3.03958282 3.63080589 4.95782317 3.6328125 6.875 C3.63410156 8.0403125 3.63539063 9.205625 3.63671875 10.40625 C3.63285156 11.6334375 3.62898438 12.860625 3.625 14.125 C3.62886719 15.3521875 3.63273437 16.579375 3.63671875 17.84375 C3.63542969 19.0090625 3.63414062 20.174375 3.6328125 21.375 C3.63168457 22.45265625 3.63055664 23.5303125 3.62939453 24.640625 C3.5 27.125 3.5 27.125 2.5 28.125 C0.83382885 28.16563832 -0.83388095 28.167721 -2.5 28.125 C-3.8241409 25.47671821 -3.62957042 23.45819888 -3.6328125 20.49609375 C-3.63410156 19.37912109 -3.63539063 18.26214844 -3.63671875 17.11132812 C-3.63285156 15.94021484 -3.62898438 14.76910156 -3.625 13.5625 C-3.62886719 12.38751953 -3.63273437 11.21253906 -3.63671875 10.00195312 C-3.63542969 8.88626953 -3.63414062 7.77058594 -3.6328125 6.62109375 C-3.63168457 5.59169678 -3.63055664 4.5622998 -3.62939453 3.50170898 C-3.45079132 0.22113866 -3.29045804 0.1645229 0 0 Z " fill="#F76156" transform="translate(471.5,135.875)"/>
<path d="M0 0 C2.5 0.125 2.5 0.125 3.5 1.125 C3.58748207 3.05167507 3.60697334 4.98151861 3.59765625 6.91015625 C3.59443359 8.07998047 3.59121094 9.24980469 3.58789062 10.45507812 C3.57951172 11.68677734 3.57113281 12.91847656 3.5625 14.1875 C3.55798828 15.42306641 3.55347656 16.65863281 3.54882812 17.93164062 C3.53699608 20.99614117 3.52051173 24.06054721 3.5 27.125 C1.52 27.455 -0.46 27.785 -2.5 28.125 C-3.8241409 25.47671821 -3.62957042 23.45819888 -3.6328125 20.49609375 C-3.63410156 19.37912109 -3.63539063 18.26214844 -3.63671875 17.11132812 C-3.63285156 15.94021484 -3.62898438 14.76910156 -3.625 13.5625 C-3.62886719 12.38751953 -3.63273437 11.21253906 -3.63671875 10.00195312 C-3.63542969 8.88626953 -3.63414062 7.77058594 -3.6328125 6.62109375 C-3.63168457 5.59169678 -3.63055664 4.5622998 -3.62939453 3.50170898 C-3.45079132 0.22113866 -3.29045804 0.1645229 0 0 Z " fill="#F56256" transform="translate(471.5,242.875)"/>
<path d="M0 0 C7.36815164 0.79322043 12.30034591 4.74869626 18.3125 8.8125 C19.43249411 9.54560767 20.55293308 10.27803619 21.67382812 11.00976562 C22.72634766 11.71423828 23.77886719 12.41871094 24.86328125 13.14453125 C25.82532471 13.78753174 26.78736816 14.43053223 27.77856445 15.09301758 C30.11204024 17.09618049 30.6942165 17.99431093 31 21 C28.9453125 21.77734375 28.9453125 21.77734375 26 22 C23.42041293 20.62084433 21.2278447 19.25828189 18.875 17.5625 C18.22136475 17.10601074 17.56772949 16.64952148 16.89428711 16.17919922 C15.56248287 15.24558672 14.23521202 14.30547325 12.91259766 13.35888672 C11.1509043 12.1072164 9.36986519 10.89361667 7.57421875 9.69140625 C6.08341797 8.66853516 6.08341797 8.66853516 4.5625 7.625 C3.67691406 7.01914063 2.79132813 6.41328125 1.87890625 5.7890625 C1.25886719 5.19867188 0.63882812 4.60828125 0 4 C0 2.68 0 1.36 0 0 Z " fill="#DE625F" transform="translate(369,248)"/>
<path d="M0 0 C2.00720923 0.28674418 4.0085944 0.61866701 6 1 C6.05784708 5.12494151 6.09354407 9.24977944 6.125 13.375 C6.15013672 15.1384375 6.15013672 15.1384375 6.17578125 16.9375 C6.18222656 18.05898438 6.18867188 19.18046875 6.1953125 20.3359375 C6.20578613 21.37282715 6.21625977 22.4097168 6.22705078 23.47802734 C6 26 6 26 4 28 C1.375 27.625 1.375 27.625 -1 27 C-1.02886537 22.68751391 -1.04675255 18.37505238 -1.0625 14.0625 C-1.07087891 12.83080078 -1.07925781 11.59910156 -1.08789062 10.33007812 C-1.09111328 9.16025391 -1.09433594 7.99042969 -1.09765625 6.78515625 C-1.10289307 5.70113525 -1.10812988 4.61711426 -1.11352539 3.50024414 C-1 1 -1 1 0 0 Z " fill="#C95D5F" transform="translate(140,243)"/>
<path d="M0 0 C2.4375 1.875 2.4375 1.875 4 4 C4 4.66 4 5.32 4 6 C0.14354879 6.22036864 -2.49223216 5.60355101 -6 4 C-5.20808982 6.16237878 -5.20808982 6.16237878 -3.1875 6.640625 C-2.465625 6.84171875 -1.74375 7.0428125 -1 7.25 C1.17578125 8.015625 1.17578125 8.015625 3 9 C4.1875 12 4.1875 12 4 15 C3.0625 16.875 3.0625 16.875 1 18 C-5.77159309 18.64491363 -5.77159309 18.64491363 -9.5 16.6875 C-11 15 -11 15 -11 12 C-7.14354879 11.77963136 -4.50776784 12.39644899 -1 14 C-1.79191018 11.83762122 -1.79191018 11.83762122 -3.8125 11.359375 C-4.534375 11.15828125 -5.25625 10.9571875 -6 10.75 C-8.1875 9.99609375 -8.1875 9.99609375 -10 9 C-11 5.8125 -11 5.8125 -11 3 C-7.49723787 -0.36265164 -4.75045142 -0.59380643 0 0 Z " fill="#F2F2F2" transform="translate(321,311)"/>
<path d="M0 0 C-0.06640625 2.1953125 -0.06640625 2.1953125 -1 5 C-3.29843425 6.84467885 -5.44169451 8.35299842 -7.9375 9.875 C-9.30952659 10.74201514 -10.68061844 11.61051122 -12.05078125 12.48046875 C-12.72447754 12.90376465 -13.39817383 13.32706055 -14.09228516 13.76318359 C-17.48084642 15.96006757 -20.66453283 18.44103166 -23.8515625 20.91796875 C-26.62039914 22.31245557 -28.09360578 21.88211614 -31 21 C-30.39842411 17.41086495 -30.09241316 17.07118795 -26.97265625 14.66796875 C-25.67678208 13.82942249 -24.37287385 13.00320219 -23.0625 12.1875 C-21.69054832 11.30993357 -20.31945637 10.43102164 -18.94921875 9.55078125 C-18.27552246 9.12104004 -17.60182617 8.69129883 -16.90771484 8.24853516 C-13.54362783 6.04685343 -10.34612584 3.61441862 -7.1484375 1.1796875 C-4.58861026 -0.22589037 -2.87727934 -0.23220149 0 0 Z " fill="#E55F5A" transform="translate(245,248)"/>
<path d="M0 0 C7.98194405 0.72987738 12.92507389 4.35942667 19.4375 8.75 C20.56136076 9.47471598 21.68570597 10.19868126 22.81054688 10.921875 C24.38739258 11.97375 24.38739258 11.97375 25.99609375 13.046875 C26.95700928 13.68463867 27.9179248 14.32240234 28.90795898 14.97949219 C31 17 31 17 31.31274414 19.74707031 C31.20953857 20.49053711 31.10633301 21.23400391 31 22 C26.67350808 21.43635985 23.92904168 19.90034596 20.33203125 17.47265625 C19.27435547 16.76302734 18.21667969 16.05339844 17.12695312 15.32226562 C16.58304932 14.95141846 16.03914551 14.58057129 15.47875977 14.19848633 C13.81218273 13.0622837 12.13840086 11.93743019 10.46289062 10.81445312 C2.32342575 5.32342575 2.32342575 5.32342575 0 3 C0 2.01 0 1.02 0 0 Z " fill="#D65F5E" transform="translate(214,140)"/>
<path d="M0 0 C1.4540625 0.0309375 1.4540625 0.0309375 2.9375 0.0625 C2.58224943 2.7096897 2.20079712 3.82728791 0.1796875 5.6328125 C-0.60148437 6.14585937 -1.38265625 6.65890625 -2.1875 7.1875 C-3.08082031 7.78046875 -3.97414063 8.3734375 -4.89453125 8.984375 C-5.93996094 9.67015625 -6.98539062 10.3559375 -8.0625 11.0625 C-9.33903761 11.94009867 -10.61368352 12.82045347 -11.88671875 13.703125 C-13.21581228 14.61506965 -14.54523823 15.52653002 -15.875 16.4375 C-16.82560303 17.09903076 -16.82560303 17.09903076 -17.79541016 17.77392578 C-21.1822929 20.06255344 -23.96201668 21.640736 -28.0625 22.0625 C-28.3925 20.7425 -28.7225 19.4225 -29.0625 18.0625 C-22.45085342 13.36434173 -15.74536548 8.82204283 -8.97827148 4.35205078 C-2.48252198 0.05066371 -2.48252198 0.05066371 0 0 Z " fill="#E65F5B" transform="translate(397.0625,139.9375)"/>
<path d="M0 0 C4.70588235 0.70588235 4.70588235 0.70588235 6 2 C6.25208722 5.80588144 6.18522344 9.62425456 6.1875 13.4375 C6.19974609 14.51322266 6.21199219 15.58894531 6.22460938 16.69726562 C6.22654297 17.72400391 6.22847656 18.75074219 6.23046875 19.80859375 C6.23457764 20.75532959 6.23868652 21.70206543 6.24291992 22.67749023 C6 25 6 25 4 27 C1.375 26.625 1.375 26.625 -1 26 C-1.02886751 21.85418113 -1.04675327 17.70838784 -1.0625 13.5625 C-1.07087891 12.37849609 -1.07925781 11.19449219 -1.08789062 9.97460938 C-1.09111328 8.84990234 -1.09433594 7.72519531 -1.09765625 6.56640625 C-1.10289307 5.52427979 -1.10812988 4.48215332 -1.11352539 3.40844727 C-1 1 -1 1 0 0 Z " fill="#DF5E58" transform="translate(140,279)"/>
<path d="M0 0 C0 8.25 0 16.5 0 25 C-1.65 25.33 -3.3 25.66 -5 26 C-7 24 -7 24 -7.22705078 21.56982422 C-7.21657715 20.5748291 -7.20610352 19.57983398 -7.1953125 18.5546875 C-7.18886719 17.47832031 -7.18242187 16.40195312 -7.17578125 15.29296875 C-7.15902344 14.16503906 -7.14226562 13.03710938 -7.125 11.875 C-7.11597656 10.73933594 -7.10695313 9.60367187 -7.09765625 8.43359375 C-7.07403098 5.62218701 -7.04109013 2.81119702 -7 0 C-5 -1 -5 -1 0 0 Z " fill="#F66156" transform="translate(475,280)"/>
<path d="M0 0 C1.45742463 -0.08096803 2.91612807 -0.13917774 4.375 -0.1875 C5.18710938 -0.22230469 5.99921875 -0.25710938 6.8359375 -0.29296875 C7.55007812 -0.19628906 8.26421875 -0.09960938 9 0 C11.43929003 3.65893505 11.26289673 6.40278333 11.1875 10.625 C11.18685547 11.31851562 11.18621094 12.01203125 11.18554688 12.7265625 C11.14043257 17.85956743 11.14043257 17.85956743 10 19 C6.5625 19.1875 6.5625 19.1875 3 19 C-0.02093215 15.97906785 0.53323166 12.43627928 0.375 8.375 C0.33632812 7.57320313 0.29765625 6.77140625 0.2578125 5.9453125 C0.16346069 3.96392444 0.08063785 1.98199355 0 0 Z " fill="#341832" transform="translate(136,312)"/>
<path d="M0 0 C2.9375 1.8125 2.9375 1.8125 5 4 C5 4.99 5 5.98 5 7 C3.02 7 1.04 7 -1 7 C-1 6.34 -1 5.68 -1 5 C-2.65 5.33 -4.3 5.66 -6 6 C-6 7.98 -6 9.96 -6 12 C-4.05396726 12.59070014 -4.05396726 12.59070014 -2 13 C-1.67 12.67 -1.34 12.34 -1 12 C0.99958364 11.95919217 3.00045254 11.95745644 5 12 C2.25 16.875 2.25 16.875 0 18 C-4.29322859 18.48602588 -6.32082639 18.46241608 -9.9375 16 C-12.23092162 12.66411401 -12.75815509 10.90015906 -12.48046875 6.9375 C-10.87278432 0.45447986 -5.98096831 -0.96122705 0 0 Z " fill="#F4F4F4" transform="translate(293,311)"/>
<path d="M0 0 C23.76 0 47.52 0 72 0 C71.67 0.99 71.34 1.98 71 3 C48.23 2.67 25.46 2.34 2 2 C1.67 4.97 1.34 7.94 1 11 C0.3515625 13.77734375 0.3515625 13.77734375 -0.375 15.9375 C-0.60960937 16.66839844 -0.84421875 17.39929688 -1.0859375 18.15234375 C-2 20 -2 20 -5 22 C-4.71125 21.195625 -4.4225 20.39125 -4.125 19.5625 C-2.08230405 13.09396284 -0.96049633 6.72347428 0 0 Z " fill="#9097A3" transform="translate(64,76)"/>
<path d="M0 0 C9.23997552 -0.02312524 18.47994114 -0.04091601 27.71993923 -0.05181217 C32.00999915 -0.05704061 36.30003933 -0.06413753 40.59008789 -0.07543945 C44.726794 -0.08626975 48.86348108 -0.09227714 53.00020027 -0.09487724 C54.58192304 -0.09673124 56.16364471 -0.10035136 57.74535942 -0.10573006 C59.95322838 -0.1129424 62.16101773 -0.11399086 64.36889648 -0.11352539 C65.62798325 -0.115746 66.88707001 -0.11796661 68.18431091 -0.12025452 C71 0 71 0 72 1 C72.23527773 3.34987262 72.41386417 5.70556039 72.5625 8.0625 C72.64628906 9.35285156 72.73007812 10.64320312 72.81640625 11.97265625 C72.87699219 12.97167969 72.93757812 13.97070312 73 15 C71 13 71 13 70 2 C47.23 2 24.46 2 1 2 C0.67 3.32 0.34 4.64 0 6 C-1.32 6.33 -2.64 6.66 -4 7 C-3.67 6.01 -3.34 5.02 -3 4 C-2.34 4 -1.68 4 -1 4 C-0.67 2.68 -0.34 1.36 0 0 Z " fill="#9EA4AD" transform="translate(478,76)"/>
<path d="M0 0 C0.99 0 1.98 0 3 0 C3 19.14 3 38.28 3 58 C2.01 58 1.02 58 0 58 C0 38.86 0 19.72 0 0 Z " fill="#FB6154" transform="translate(470,174)"/>
<path d="M0 0 C0.99 0 1.98 0 3 0 C3 2.97 3 5.94 3 9 C6.63 9 10.26 9 14 9 C14 6.03 14 3.06 14 0 C14.99 0 15.98 0 17 0 C17 7.26 17 14.52 17 22 C16.01 22 15.02 22 14 22 C14 18.7 14 15.4 14 12 C10.37 12 6.74 12 3 12 C3 15.3 3 18.6 3 22 C2.01 22 1.02 22 0 22 C0 14.74 0 7.48 0 0 Z " fill="#DCDCDC" transform="translate(329,307)"/>
<path d="M0 0 C2.31 0 4.62 0 7 0 C7 0.33 7 0.66 7 1 C5.7934375 1.31324219 5.7934375 1.31324219 4.5625 1.6328125 C-0.10513954 3.42412153 -3.8967851 6.05150064 -8 8.875 C-8.78117187 9.40480469 -9.56234375 9.93460938 -10.3671875 10.48046875 C-11.88647156 11.51122881 -13.40225193 12.54717666 -14.9140625 13.58886719 C-16.22460915 14.47544954 -17.55110303 15.33933659 -18.8984375 16.16894531 C-20.7308382 17.26677134 -20.7308382 17.26677134 -23 19 C-23 19.99 -23 20.98 -23 22 C-17.94704511 21.5063205 -14.66243098 19.02099824 -10.625 16.1875 C-5.85527692 12.88650262 -1.07599909 9.81344135 4 7 C4 7.66 4 8.32 4 9 C2.5390625 10.2890625 2.5390625 10.2890625 0.625 11.625 C-0.00148438 12.07101563 -0.62796875 12.51703125 -1.2734375 12.9765625 C-3 14 -3 14 -5 14 C-5.0825 14.61875 -5.165 15.2375 -5.25 15.875 C-6 18 -6 18 -8 19.0625 C-8.99 19.5265625 -8.99 19.5265625 -10 20 C-10.33 20.99 -10.66 21.98 -11 23 C-13.14526099 23.19393875 -15.29123677 23.37998676 -17.4375 23.5625 C-18.63246094 23.66691406 -19.82742188 23.77132812 -21.05859375 23.87890625 C-22.51458984 23.93884766 -22.51458984 23.93884766 -24 24 C-25 23 -25 23 -25.1875 20.6875 C-24.87936508 16.27089947 -24.87936508 16.27089947 -23 14 C-20.34185683 13.03981359 -17.79214775 12.54041569 -15 12 C-15 10.02 -15 8.04 -15 6 C-10.545 5.505 -10.545 5.505 -6 5 C-6 4.01 -6 3.02 -6 2 C-4.02 2 -2.04 2 0 2 C0 1.34 0 0.68 0 0 Z " fill="#3C1B36" transform="translate(392,139)"/>
<path d="M0 0 C3.0625 0.3125 3.0625 0.3125 4.9375 1.375 C6.72485303 4.45321911 6.49636742 6.84156068 6.0625 10.3125 C4.375 12.3125 4.375 12.3125 2.0625 13.3125 C-1.09837718 13.23540543 -2.46020469 12.74206578 -4.8125 10.625 C-6.34653612 7.47170352 -5.87651464 5.6351672 -4.9375 2.3125 C-2.9375 0.3125 -2.9375 0.3125 0 0 Z " fill="#1F2139" transform="translate(379.9375,313.6875)"/>
<path d="M0 0 C3.66666667 0 7.33333333 0 11 0 C11 1.98 11 3.96 11 6 C9.35 6.66 7.7 7.32 6 8 C5.67 11.3 5.34 14.6 5 18 C3.35 18 1.7 18 0 18 C0 12.06 0 6.12 0 0 Z " fill="#F6F6F6" transform="translate(268,311)"/>
<path d="M0 0 C0.53522026 1.01746307 0.53522026 1.01746307 1.08125305 2.05548096 C4.16902477 3.33556357 4.16902477 3.33556357 7.08125305 4.05548096 C7.08125305 4.38548096 7.08125305 4.71548096 7.08125305 5.05548096 C0.44143771 4.42908328 0.44143771 4.42908328 -1.38227558 2.53743267 C-3.38616752 0.60464619 -4.43985161 0.67350103 -7.18978882 0.65675354 C-8.06057068 0.64421539 -8.93135254 0.63167725 -9.82852173 0.61875916 C-10.78086197 0.62019424 -11.73320221 0.62162933 -12.71440125 0.62310791 C-14.22198502 0.60782043 -14.22198502 0.60782043 -15.76002502 0.59222412 C-19.08772784 0.56198885 -22.41514332 0.55281197 -25.7429657 0.54376221 C-28.04797327 0.52692336 -30.35297162 0.50877421 -32.65795898 0.48936462 C-38.7291526 0.44177244 -44.80030881 0.41202264 -50.87162781 0.38592529 C-57.06514373 0.35616629 -63.25853065 0.30962 -69.45195007 0.26446533 C-81.60748168 0.1783273 -93.76303977 0.11102871 -105.91874695 0.05548096 C-105.91874695 -0.27451904 -105.91874695 -0.60451904 -105.91874695 -0.94451904 C-92.41093017 -1.16763002 -78.90298205 -1.36916075 -65.39443493 -1.54291916 C-59.12229165 -1.62427982 -52.85044021 -1.71315427 -46.57865906 -1.81903076 C-40.52935545 -1.9208779 -34.4800758 -2.00320951 -28.43030739 -2.07184601 C-26.11887366 -2.10153236 -23.80752023 -2.13832597 -21.4963131 -2.18224335 C-18.26619682 -2.24242383 -15.03672189 -2.27763384 -11.80619812 -2.30682373 C-10.84450714 -2.33055557 -9.88281616 -2.35428741 -8.89198303 -2.3787384 C-2.36855688 -2.4003707 -2.36855688 -2.4003707 0 0 Z " fill="#2F3046" transform="translate(465.9187469482422,77.94451904296875)"/>
<path d="M0 0 C0.33 0 0.66 0 1 0 C1.29254918 4.97333608 1.16504232 8.0436971 -2 12 C-4.64417414 13.73523928 -5.78465943 14 -9 14 C-9 21.26 -9 28.52 -9 36 C-4.05 36.33 0.9 36.66 6 37 C6.33 37.99 6.66 38.98 7 40 C8.49985609 41.66710346 8.49985609 41.66710346 10 43 C9.47792969 42.80664062 8.95585938 42.61328125 8.41796875 42.4140625 C3.05548273 40.5170009 -2.19539261 39.31906284 -7.8125 38.4296875 C-10 38 -10 38 -11 37 C-11.08713831 35.29227642 -11.10700007 33.58101351 -11.09765625 31.87109375 C-11.09443359 30.83662109 -11.09121094 29.80214844 -11.08789062 28.73632812 C-11.07951172 27.64771484 -11.07113281 26.55910156 -11.0625 25.4375 C-11.05798828 24.34501953 -11.05347656 23.25253906 -11.04882812 22.12695312 C-11.03699826 19.41791505 -11.02051543 16.70898401 -11 14 C-4.25 10 -4.25 10 -2 10 C-1.34 6.7 -0.68 3.4 0 0 Z " fill="#6B6B77" transform="translate(40,271)"/>
<path d="M0 0 C2.5 0.125 2.5 0.125 3.5 1.125 C3.58843793 3.57330426 3.61528752 5.99320599 3.59765625 8.44140625 C3.5962413 9.17246078 3.59482635 9.90351532 3.59336853 10.65672302 C3.58775408 13.00035632 3.57519922 15.34389539 3.5625 17.6875 C3.55748686 19.27278508 3.55292363 20.85807166 3.54882812 22.44335938 C3.53777997 26.3372761 3.52050572 30.23112205 3.5 34.125 C1.50045254 34.16754356 -0.50041636 34.16580783 -2.5 34.125 C-4.17673649 32.44826351 -3.62787817 30.39644924 -3.63894653 28.15844727 C-3.6369223 27.46678467 -3.63489807 26.77512207 -3.6328125 26.0625 C-3.63376923 25.35601318 -3.63472595 24.64952637 -3.63571167 23.92163086 C-3.63639333 22.42529207 -3.63454005 20.92895033 -3.63037109 19.43261719 C-3.62502257 17.13469843 -3.63031651 14.83697514 -3.63671875 12.5390625 C-3.63605797 11.08854123 -3.6347768 9.63802009 -3.6328125 8.1875 C-3.63483673 7.4958374 -3.63686096 6.8041748 -3.63894653 6.09155273 C-3.60971249 0.18048562 -3.60971249 0.18048562 0 0 Z M-1.5 1.125 C-2.82887035 2.22767706 -2.82887035 2.22767706 -2.61352539 4.99243164 C-2.60828857 6.24403076 -2.60305176 7.49562988 -2.59765625 8.78515625 C-2.5962413 9.44962265 -2.59482635 10.11408905 -2.59336853 10.7986908 C-2.58775518 12.92833899 -2.57520054 15.05788339 -2.5625 17.1875 C-2.55748671 18.62825369 -2.55292351 20.06900903 -2.54882812 21.50976562 C-2.53778145 25.04821102 -2.52050792 28.58659539 -2.5 32.125 C-1.18 32.125 0.14 32.125 1.5 32.125 C1.5 21.895 1.5 11.665 1.5 1.125 C0.51 1.125 -0.48 1.125 -1.5 1.125 Z " fill="#C55C5C" transform="translate(142.5,92.875)"/>
<path d="M0 0 C1.98 0 3.96 0 6 0 C6 5.94 6 11.88 6 18 C4.02 18 2.04 18 0 18 C0 12.06 0 6.12 0 0 Z " fill="#E2E2E2" transform="translate(301,311)"/>
<path d="M0 0 C2.97 0.33 5.94 0.66 9 1 C9.07409401 4.95092059 9.12857406 8.90157294 9.16479492 12.85302734 C9.18732251 14.85919374 9.2254357 16.86516526 9.26367188 18.87109375 C9.27817383 20.75634766 9.27817383 20.75634766 9.29296875 22.6796875 C9.31653442 24.42354736 9.31653442 24.42354736 9.34057617 26.20263672 C9.22818604 27.1257666 9.1157959 28.04889648 9 29 C5.55892734 31.29404844 4.03160191 31.26293056 0 31 C-1 30 -1 30 -1.11352539 27.49975586 C-1.10828857 26.41573486 -1.10305176 25.33171387 -1.09765625 24.21484375 C-1.09443359 23.04501953 -1.09121094 21.87519531 -1.08789062 20.66992188 C-1.07951172 19.43822266 -1.07113281 18.20652344 -1.0625 16.9375 C-1.05798828 15.70193359 -1.05347656 14.46636719 -1.04882812 13.19335938 C-1.03699608 10.12885883 -1.02051173 7.06445279 -1 4 C-0.67 4 -0.34 4 0 4 C0.33 12.58 0.66 21.16 1 30 C2.98 29.67 4.96 29.34 7 29 C6.67 20.42 6.34 11.84 6 3 C4.02 3 2.04 3 0 3 C0 2.01 0 1.02 0 0 Z " fill="#401A30" transform="translate(468,241)"/>
<path d="M0 0 C0.99 0 1.98 0 3 0 C3.06058594 0.99902344 3.12117188 1.99804688 3.18359375 3.02734375 C3.26738281 4.31769531 3.35117187 5.60804688 3.4375 6.9375 C3.51871094 8.22527344 3.59992188 9.51304687 3.68359375 10.83984375 C3.64919188 13.86023957 3.64919188 13.86023957 5 15 C7.45809998 15.2500773 7.45809998 15.2500773 10 15 C12.68092691 12.31907309 12.38670257 10.60832637 12.625 6.875 C12.69976562 5.77929688 12.77453125 4.68359375 12.8515625 3.5546875 C12.90054687 2.71164062 12.94953125 1.86859375 13 1 C13.66 1 14.32 1 15 1 C15 6.61 15 12.22 15 18 C14.01 17.67 13.02 17.34 12 17 C11.34 17.33 10.68 17.66 10 18 C6.5625 18.3125 6.5625 18.3125 3 18 C0.34893261 15.57288123 0.01343582 14.15836359 -0.29296875 10.546875 C-0.25816406 9.29390625 -0.22335937 8.0409375 -0.1875 6.75 C-0.16042969 5.48671875 -0.13335937 4.2234375 -0.10546875 2.921875 C-0.07066406 1.95765625 -0.03585937 0.9934375 0 0 Z " fill="#E7E7E7" transform="translate(351,311)"/>
<path d="M0 0 C3.60172447 1.349033 6.8294887 2.95716982 10.125 4.9375 C10.97320312 5.44152344 11.82140625 5.94554687 12.6953125 6.46484375 C14.83764258 7.89185345 16.38532762 9.00973199 18 11 C18.38768005 13.19407654 18.38768005 13.19407654 18.40405273 15.77514648 C18.41673691 16.74302597 18.42942108 17.71090546 18.44248962 18.70811462 C18.43955399 19.75189774 18.43661835 20.79568085 18.43359375 21.87109375 C18.4388356 22.94496841 18.44407745 24.01884308 18.44947815 25.1252594 C18.45590447 27.39738093 18.45455351 29.6695357 18.44604492 31.94165039 C18.4375411 35.420687 18.46627971 38.89807908 18.49804688 42.37695312 C18.49965907 44.58333284 18.499081 46.78971547 18.49609375 48.99609375 C18.50732773 50.03785263 18.51856171 51.07961151 18.53013611 52.15293884 C18.4602108 59.39097719 18.4602108 59.39097719 15.96899414 62.68774414 C15.31922607 63.12078857 14.66945801 63.55383301 14 64 C13.3125 61.75 13.3125 61.75 13 59 C13.47743652 58.48171631 13.95487305 57.96343262 14.44677734 57.42944336 C16.87738625 53.62765317 16.5073706 49.80436226 16.5390625 45.37890625 C16.55141937 44.44199448 16.56377625 43.5050827 16.57650757 42.53977966 C16.59605718 40.56035602 16.60730298 38.58083538 16.61083984 36.60131836 C16.62493867 33.57566246 16.69229569 30.55412339 16.76171875 27.52929688 C16.77411615 25.60418501 16.78333632 23.67904952 16.7890625 21.75390625 C16.81578033 20.85168839 16.84249817 19.94947052 16.87002563 19.01991272 C16.87025825 14.25928934 16.87025825 14.25928934 14.49383545 10.32028198 C11.73857086 8.28997016 9.25346165 7.08448722 6 6 C6 5.34 6 4.68 6 4 C5.071875 3.7834375 5.071875 3.7834375 4.125 3.5625 C2 3 2 3 0 2 C0 1.34 0 0.68 0 0 Z " fill="#CE6266" transform="translate(334,169)"/>
<path d="M0 0 C5.47166904 -0.36477794 5.47166904 -0.36477794 7.67431641 1.15600586 C9.51867421 3.7214634 9.38800649 5.55042991 9.3984375 8.69140625 C9.40230469 9.80064453 9.40617187 10.90988281 9.41015625 12.05273438 C9.39855469 13.21095703 9.38695312 14.36917969 9.375 15.5625 C9.38660156 16.72458984 9.39820313 17.88667969 9.41015625 19.08398438 C9.40628906 20.19193359 9.40242188 21.29988281 9.3984375 22.44140625 C9.39505371 23.45920166 9.39166992 24.47699707 9.38818359 25.52563477 C9.26008301 26.34217529 9.13198242 27.15871582 9 28 C6 30 6 30 3.8125 29.625 C2.9153125 29.315625 2.9153125 29.315625 2 29 C3.65 28.67 5.3 28.34 7 28 C6.67 19.75 6.34 11.5 6 3 C4.02 3 2.04 3 0 3 C0 10.92 0 18.84 0 27 C-0.33 27 -0.66 27 -1 27 C-1.02892385 22.87501462 -1.04677267 18.75005515 -1.0625 14.625 C-1.07087891 13.449375 -1.07925781 12.27375 -1.08789062 11.0625 C-1.09111328 9.94101562 -1.09433594 8.81953125 -1.09765625 7.6640625 C-1.10289307 6.62717285 -1.10812988 5.5902832 -1.11352539 4.52197266 C-1 2 -1 2 0 0 Z " fill="#3E192F" transform="translate(468,277)"/>
<path d="M0 0 C3.4375 0.1875 3.4375 0.1875 4.4375 1.1875 C4.69092626 5.30620915 4.6227282 9.43691933 4.625 13.5625 C4.63724609 14.72523438 4.64949219 15.88796875 4.66210938 17.0859375 C4.66500977 18.7565625 4.66500977 18.7565625 4.66796875 20.4609375 C4.67207764 21.48622559 4.67618652 22.51151367 4.68041992 23.56787109 C4.4375 26.1875 4.4375 26.1875 2.4375 29.1875 C-0.5625 29.5 -0.5625 29.5 -3.5625 29.1875 C-6.20949616 26.54050384 -5.81999767 25.28355591 -5.828125 21.59375 C-5.83070313 20.48128906 -5.83328125 19.36882812 -5.8359375 18.22265625 C-5.82433594 16.47275391 -5.82433594 16.47275391 -5.8125 14.6875 C-5.82023438 13.52089844 -5.82796875 12.35429687 -5.8359375 11.15234375 C-5.83335937 10.03988281 -5.83078125 8.92742187 -5.828125 7.78125 C-5.82586914 6.75708984 -5.82361328 5.73292969 -5.82128906 4.67773438 C-5.38590906 0.48822867 -4.07596136 0.21452428 0 0 Z M-2.5625 1.1875 C-3.83555556 2.23621253 -3.83555556 2.23621253 -3.67602539 4.59594727 C-3.67078857 5.63807373 -3.66555176 6.6802002 -3.66015625 7.75390625 C-3.65693359 8.87861328 -3.65371094 10.00332031 -3.65039062 11.16210938 C-3.64201172 12.34611328 -3.63363281 13.53011719 -3.625 14.75 C-3.62048828 15.93787109 -3.61597656 17.12574219 -3.61132812 18.34960938 C-3.59949675 21.29562226 -3.58301287 24.24153681 -3.5625 27.1875 C-1.16530568 27.86708603 -1.16530568 27.86708603 1.4375 28.1875 C4.00738681 25.61761319 3.69456775 24.59839947 3.703125 21.03125 C3.70570313 20.00902344 3.70828125 18.98679687 3.7109375 17.93359375 C3.70320312 16.86238281 3.69546875 15.79117187 3.6875 14.6875 C3.69910156 13.08068359 3.69910156 13.08068359 3.7109375 11.44140625 C3.70835937 10.41917969 3.70578125 9.39695312 3.703125 8.34375 C3.70086914 7.40337891 3.69861328 6.46300781 3.69628906 5.49414062 C3.65848716 2.99258033 3.65848716 2.99258033 1.4375 1.1875 C0.1175 1.1875 -1.2025 1.1875 -2.5625 1.1875 Z " fill="#4F2236" transform="translate(142.5625,277.8125)"/>
<path d="M0 0 C5.84642024 2.71401697 11.39948039 5.7781764 16.85546875 9.20703125 C17.45150909 9.57980194 18.04754944 9.95257263 18.66165161 10.3366394 C21.13338771 11.88541912 23.6025019 13.43759126 26.05834961 15.01147461 C27.8779471 16.17434655 29.70906182 17.31690089 31.54296875 18.45703125 C32.61571045 19.13741455 33.68845215 19.81779785 34.79370117 20.51879883 C39.550328 22.71619889 44.04169856 22.58665646 49 21 C48 24 48 24 45.125 25.6875 C42 27 42 27 39 27 C39 26.01 39 25.02 39 24 C38.30132812 23.74347656 37.60265625 23.48695313 36.8828125 23.22265625 C33.69396256 21.87020363 30.84406779 20.2196848 27.875 18.4375 C24.88937474 16.64686939 22.30351083 15.10117028 19 14 C19 13.34 19 12.68 19 12 C17.906875 11.71125 16.81375 11.4225 15.6875 11.125 C12 10 12 10 9 8 C9 7.34 9 6.68 9 6 C8.2575 5.71125 7.515 5.4225 6.75 5.125 C4.43260203 4.17697356 2.22082885 3.15154089 0 2 C0 1.34 0 0.68 0 0 Z " fill="#461D32" transform="translate(265,233)"/>
<path d="M0 0 C1.65 0.33 3.3 0.66 5 1 C5 5.29 5 9.58 5 14 C0 15 0 15 -2 14 C-2.05389087 12.04196493 -2.09274217 10.08351091 -2.125 8.125 C-2.14820313 7.03445313 -2.17140625 5.94390625 -2.1953125 4.8203125 C-2 2 -2 2 0 0 Z " fill="#CD6568" transform="translate(470,314)"/>
<path d="M0 0 C0.66 0 1.32 0 2 0 C2.06058594 1.13179687 2.12117188 2.26359375 2.18359375 3.4296875 C2.26799917 4.91147145 2.35264717 6.3932416 2.4375 7.875 C2.47681641 8.62136719 2.51613281 9.36773437 2.55664062 10.13671875 C2.71573624 14.19986864 2.71573624 14.19986864 4 18 C5.98 18 7.96 18 10 18 C11.49836149 23.77939433 12.41971194 29.01910492 12 35 C11.34 35.66 10.68 36.32 10 37 C10.0928125 35.1746875 10.0928125 35.1746875 10.1875 33.3125 C10.15954229 29.3494942 9.66018068 27.08924207 7 24 C3.535 22.02 3.535 22.02 0 20 C0 13.4 0 6.8 0 0 Z " fill="#5D5E6C" transform="translate(29,201)"/>
<path d="M0 0 C0.99 0.33 1.98 0.66 3 1 C3 8.59 3 16.18 3 24 C1.68 24 0.36 24 -1 24 C-1.02887236 20.18751574 -1.04675492 16.3750593 -1.0625 12.5625 C-1.07087891 11.47388672 -1.07925781 10.38527344 -1.08789062 9.26367188 C-1.09111328 8.22919922 -1.09433594 7.19472656 -1.09765625 6.12890625 C-1.10289307 5.17056885 -1.10812988 4.21223145 -1.11352539 3.22485352 C-1 1 -1 1 0 0 Z " fill="#F86154" transform="translate(141,245)"/>
<path d="M0 0 C1.67542976 0.28604898 3.34385343 0.61781233 5 1 C4.67 2.65 4.34 4.3 4 6 C3.34 5.34 2.68 4.68 2 4 C0.72530593 6.54938815 0.87983816 8.33040998 0.88647461 11.18408203 C0.88655014 12.26505157 0.88662567 13.34602112 0.88670349 14.45974731 C0.89186478 15.63060883 0.89702606 16.80147034 0.90234375 18.0078125 C0.90446617 19.8014473 0.90446617 19.8014473 0.90663147 21.63131714 C0.91224337 25.46256987 0.92479792 29.29376484 0.9375 33.125 C0.94251347 35.71744707 0.94707664 38.30989506 0.95117188 40.90234375 C0.96221667 47.26824898 0.97896641 53.63412037 1 60 C2.32 60.66 3.64 61.32 5 62 C1.25 63.125 1.25 63.125 -1 62 C-1.02312764 54.06386213 -1.04091723 46.12773824 -1.05181217 38.19157505 C-1.05704008 34.50685502 -1.06413605 30.82215797 -1.07543945 27.13745117 C-1.08627162 23.58429169 -1.09227753 20.03115437 -1.09487724 16.47797966 C-1.0967309 15.11954334 -1.10035038 13.76110829 -1.10573006 12.40268135 C-1.11294475 10.50617777 -1.11340809 8.60965207 -1.11352539 6.71313477 C-1.115746 5.63169693 -1.11796661 4.55025909 -1.12025452 3.43605042 C-1 1 -1 1 0 0 Z " fill="#D76966" transform="translate(140,172)"/>
<path d="M0 0 C3.5625 0.125 3.5625 0.125 5.5625 1.125 C5.5625 9.375 5.5625 17.625 5.5625 26.125 C5.2325 26.125 4.9025 26.125 4.5625 26.125 C4.5625 18.205 4.5625 10.285 4.5625 2.125 C2.5825 2.125 0.6025 2.125 -1.4375 2.125 C-1.7675 10.705 -2.0975 19.285 -2.4375 28.125 C-3.0975 28.125 -3.7575 28.125 -4.4375 28.125 C-4.46636338 23.64584672 -4.48425187 19.16671709 -4.5 14.6875 C-4.50837891 13.40810547 -4.51675781 12.12871094 -4.52539062 10.81054688 C-4.52861328 9.59560547 -4.53183594 8.38066406 -4.53515625 7.12890625 C-4.54039307 6.00299072 -4.54562988 4.8770752 -4.55102539 3.71704102 C-4.37802882 -0.23286128 -4.07640334 0.14823285 0 0 Z " fill="#491F34" transform="translate(141.4375,241.875)"/>
<path d="M0 0 C1.65 0.33 3.3 0.66 5 1 C5 5.29 5 9.58 5 14 C3.35 14.33 1.7 14.66 0 15 C-1 14 -1 14 -1.1328125 11.09375 C-1.13023437 9.9078125 -1.12765625 8.721875 -1.125 7.5 C-1.12757813 6.3140625 -1.13015625 5.128125 -1.1328125 3.90625 C-1 1 -1 1 0 0 Z " fill="#F76255" transform="translate(140,314)"/>
<path d="M0 0 C1.98 0 3.96 0 6 0 C6 2.31 6 4.62 6 7 C6.66 7.33 7.32 7.66 8 8 C6.02 8.99 6.02 8.99 4 10 C4 7.36 4 4.72 4 2 C3.34 2 2.68 2 2 2 C2 9.59 2 17.18 2 25 C2.99 25.33 3.98 25.66 5 26 C3.35 26 1.7 26 0 26 C0 17.42 0 8.84 0 0 Z " fill="#3C3D46" transform="translate(370,304)"/>
<path d="M0 0 C0.99 0 1.98 0 3 0 C3 7.26 3 14.52 3 22 C2.01 22 1.02 22 0 22 C0 18.37 0 14.74 0 11 C-3.63 11 -7.26 11 -11 11 C-11 10.67 -11 10.34 -11 10 C-7.37 10 -3.74 10 0 10 C0 6.7 0 3.4 0 0 Z " fill="#F6F6F6" transform="translate(343,307)"/>
<path d="M0 0 C2.5 0.125 2.5 0.125 3.5 1.125 C3.59971786 3.03958282 3.63080589 4.95782317 3.6328125 6.875 C3.63410156 8.0403125 3.63539063 9.205625 3.63671875 10.40625 C3.63285156 11.6334375 3.62898438 12.860625 3.625 14.125 C3.62886719 15.3521875 3.63273437 16.579375 3.63671875 17.84375 C3.63542969 19.0090625 3.63414062 20.174375 3.6328125 21.375 C3.63168457 22.45265625 3.63055664 23.5303125 3.62939453 24.640625 C3.5 27.125 3.5 27.125 2.5 28.125 C0.83382885 28.16563832 -0.83388095 28.167721 -2.5 28.125 C-3.8241409 25.47671821 -3.62957042 23.45819888 -3.6328125 20.49609375 C-3.63410156 19.37912109 -3.63539063 18.26214844 -3.63671875 17.11132812 C-3.63285156 15.94021484 -3.62898438 14.76910156 -3.625 13.5625 C-3.62886719 12.38751953 -3.63273437 11.21253906 -3.63671875 10.00195312 C-3.63542969 8.88626953 -3.63414062 7.77058594 -3.6328125 6.62109375 C-3.63168457 5.59169678 -3.63055664 4.5622998 -3.62939453 3.50170898 C-3.45079132 0.22113866 -3.29045804 0.1645229 0 0 Z M-1.5 1.125 C-3.14889766 2.77389766 -2.62998381 4.69845384 -2.6328125 6.96484375 C-2.63410156 7.94517578 -2.63539063 8.92550781 -2.63671875 9.93554688 C-2.63285156 10.96744141 -2.62898438 11.99933594 -2.625 13.0625 C-2.62886719 14.09052734 -2.63273437 15.11855469 -2.63671875 16.17773438 C-2.63542969 17.15935547 -2.63414062 18.14097656 -2.6328125 19.15234375 C-2.63168457 20.05718506 -2.63055664 20.96202637 -2.62939453 21.89428711 C-2.64496576 24.16395859 -2.64496576 24.16395859 -1.5 26.125 C-0.51 26.125 0.48 26.125 1.5 26.125 C2.56309567 20.95182579 2.61693938 16.00130664 2.5625 10.75 C2.55798828 9.91855469 2.55347656 9.08710938 2.54882812 8.23046875 C2.53713164 6.19528103 2.51919935 4.16013077 2.5 2.125 C0.55396726 1.53429986 0.55396726 1.53429986 -1.5 1.125 Z " fill="#CE6265" transform="translate(471.5,135.875)"/>
<path d="M0 0 C-1.98 0.99 -1.98 0.99 -4 2 C-4.33 8.27 -4.66 14.54 -5 21 C-3.35 21.33 -1.7 21.66 0 22 C3.72815919 25.47961525 4.89803731 26.73566264 5.3125 31.875 C5.1578125 33.421875 5.1578125 33.421875 5 35 C4.67 35 4.34 35 4 35 C3.84144531 34.38511719 3.68289062 33.77023438 3.51953125 33.13671875 C2.10149763 27.91131062 2.10149763 27.91131062 -1.5 24.0625 C-2.7375 23.5365625 -2.7375 23.5365625 -4 23 C-4.99 22.34 -5.98 21.68 -7 21 C-7.34057617 18.93701172 -7.34057617 18.93701172 -7.29296875 16.4296875 C-7.28330078 15.53378906 -7.27363281 14.63789063 -7.26367188 13.71484375 C-7.23853516 12.77769531 -7.21339844 11.84054688 -7.1875 10.875 C-7.17396484 9.93011719 -7.16042969 8.98523438 -7.14648438 8.01171875 C-7.11106306 5.67391221 -7.06167271 3.33723763 -7 1 C-3.375 -1.125 -3.375 -1.125 0 0 Z " fill="#73747E" transform="translate(36,158)"/>
<path d="M0 0 C1.2065625 0.0309375 1.2065625 0.0309375 2.4375 0.0625 C2.4375 1.0525 2.4375 2.0425 2.4375 3.0625 C5.0775 3.0625 7.7175 3.0625 10.4375 3.0625 C10.1075 4.3825 9.7775 5.7025 9.4375 7.0625 C9.1075 6.7325 8.7775 6.4025 8.4375 6.0625 C8.4375 6.3925 8.4375 6.7225 8.4375 7.0625 C6.81578761 7.45147161 5.18995075 7.82328298 3.5625 8.1875 C2.65757812 8.39632813 1.75265625 8.60515625 0.8203125 8.8203125 C0.03398437 8.90023438 -0.75234375 8.98015625 -1.5625 9.0625 C-3.5625 7.0625 -3.5625 7.0625 -3.75 4 C-3.50012994 0.08536902 -3.50012994 0.08536902 0 0 Z " fill="#2B2D43" transform="translate(289.5625,315.9375)"/>
<path d="M0 0 C0.33 0 0.66 0 1 0 C1 7.59 1 15.18 1 23 C2.65 23 4.3 23 6 23 C6 20.03 6 17.06 6 14 C6.66 14 7.32 14 8 14 C8.91534299 15.30596707 9.78313974 16.64549858 10.625 18 C12.78774821 21.13265245 12.78774821 21.13265245 16.171875 22.53125 C18.62104508 22.54152659 18.62104508 22.54152659 22 22 C22.33 22.66 22.66 23.32 23 24 C19.61884349 24.29036649 16.37080851 24.44908891 13 24 C10.375 21.5 10.375 21.5 9 19 C8.67 20.65 8.34 22.3 8 24 C5.36 24 2.72 24 0 24 C0 16.08 0 8.16 0 0 Z " fill="#19191D" transform="translate(223,306)"/>
<path d="M0 0 C1.65 0.33 3.3 0.66 5 1 C5 20.8 5 40.6 5 61 C4.67 61 4.34 61 4 61 C3.99453156 59.93884224 3.99453156 59.93884224 3.98895264 58.85624695 C3.95109179 52.19049711 3.89426174 45.52521089 3.81609726 38.85980511 C3.77658092 35.43296577 3.74441344 32.00638496 3.72900391 28.5793457 C3.71096851 24.63980067 3.66103569 20.70097231 3.609375 16.76171875 C3.60814636 15.53039719 3.60691772 14.29907562 3.60565186 13.03044128 C3.58593323 11.88948502 3.5662146 10.74852875 3.54589844 9.57299805 C3.53701599 8.567061 3.52813354 7.56112396 3.51898193 6.52470398 C3.22570051 3.8402016 3.22570051 3.8402016 0.96588135 2.15168762 C0.3171405 1.77163071 -0.33160034 1.39157379 -1 1 C-0.67 0.67 -0.34 0.34 0 0 Z " fill="#D46B6A" transform="translate(470,172)"/>
<path d="M0 0 C2.5 0.125 2.5 0.125 3.5 1.125 C3.58748207 3.05167507 3.60697334 4.98151861 3.59765625 6.91015625 C3.59443359 8.07998047 3.59121094 9.24980469 3.58789062 10.45507812 C3.57951172 11.68677734 3.57113281 12.91847656 3.5625 14.1875 C3.55798828 15.42306641 3.55347656 16.65863281 3.54882812 17.93164062 C3.53699608 20.99614117 3.52051173 24.06054721 3.5 27.125 C1.52 27.455 -0.46 27.785 -2.5 28.125 C-3.8241409 25.47671821 -3.62957042 23.45819888 -3.6328125 20.49609375 C-3.63410156 19.37912109 -3.63539063 18.26214844 -3.63671875 17.11132812 C-3.63285156 15.94021484 -3.62898438 14.76910156 -3.625 13.5625 C-3.62886719 12.38751953 -3.63273437 11.21253906 -3.63671875 10.00195312 C-3.63542969 8.88626953 -3.63414062 7.77058594 -3.6328125 6.62109375 C-3.63168457 5.59169678 -3.63055664 4.5622998 -3.62939453 3.50170898 C-3.45079132 0.22113866 -3.29045804 0.1645229 0 0 Z M-0.5 1.125 C-2.73131867 2.9326787 -2.73131867 2.9326787 -2.72705078 5.46337891 C-2.71657715 6.41647949 -2.70610352 7.36958008 -2.6953125 8.3515625 C-2.68886719 9.3828125 -2.68242187 10.4140625 -2.67578125 11.4765625 C-2.65902344 12.55679688 -2.64226562 13.63703125 -2.625 14.75 C-2.61597656 15.83796875 -2.60695313 16.9259375 -2.59765625 18.046875 C-2.57403409 20.73980152 -2.54109556 23.43229255 -2.5 26.125 C-0.85 26.125 0.8 26.125 2.5 26.125 C2.5 18.205 2.5 10.285 2.5 2.125 C1.51 1.795 0.52 1.465 -0.5 1.125 Z " fill="#C76268" transform="translate(471.5,242.875)"/>
<path d="M0 0 C0 8.25 0 16.5 0 25 C-1.65 25.33 -3.3 25.66 -5 26 C-7 24 -7 24 -7.22705078 21.56982422 C-7.21657715 20.5748291 -7.20610352 19.57983398 -7.1953125 18.5546875 C-7.18886719 17.47832031 -7.18242187 16.40195312 -7.17578125 15.29296875 C-7.15902344 14.16503906 -7.14226562 13.03710938 -7.125 11.875 C-7.11597656 10.73933594 -7.10695313 9.60367187 -7.09765625 8.43359375 C-7.07403098 5.62218701 -7.04109013 2.81119702 -7 0 C-5 -1 -5 -1 0 0 Z M-5 1 C-6.23921211 2.01636977 -6.23921211 2.01636977 -6.11352539 4.13305664 C-6.10828857 5.04949951 -6.10305176 5.96594238 -6.09765625 6.91015625 C-6.09443359 7.89951172 -6.09121094 8.88886719 -6.08789062 9.90820312 C-6.07951172 10.94912109 -6.07113281 11.99003906 -6.0625 13.0625 C-6.05798828 14.10728516 -6.05347656 15.15207031 -6.04882812 16.22851562 C-6.03699913 18.8190666 -6.02051689 21.40950559 -6 24 C-4.35 24 -2.7 24 -1 24 C-1 16.74 -1 9.48 -1 2 C-2.32 1.67 -3.64 1.34 -5 1 Z " fill="#C56062" transform="translate(475,280)"/>
<path d="M0 0 C1.4540625 0.0309375 1.4540625 0.0309375 2.9375 0.0625 C2.6075 1.0525 2.2775 2.0425 1.9375 3.0625 C0.6175 2.7325 -0.7025 2.4025 -2.0625 2.0625 C-0.6960911 7.51837554 2.67763662 9.32472975 7.1875 12.125 C7.84363281 12.54587891 8.49976563 12.96675781 9.17578125 13.40039062 C10.47019028 14.23030496 11.76765996 15.05546781 13.06835938 15.87548828 C15.72163673 17.56047189 18.32923729 19.30880783 20.9375 21.0625 C18.9375 22.0625 18.9375 22.0625 16.9375 21.8125 C14.9375 21.0625 14.9375 21.0625 12.9375 18.0625 C10.04687238 16.1607713 7.0531341 14.56262012 3.9375 13.0625 C3.9375 12.4025 3.9375 11.7425 3.9375 11.0625 C2.7928125 10.629375 2.7928125 10.629375 1.625 10.1875 C-1.0625 9.0625 -1.0625 9.0625 -4.0625 7.0625 C-4.3125 4 -4.3125 4 -4.0625 1.0625 C-3.0625 0.0625 -3.0625 0.0625 0 0 Z " fill="#441E36" transform="translate(371.0625,245.9375)"/>
<path d="M0 0 C7 0 7 0 10 2 C10.3984375 4.6796875 10.3984375 4.6796875 10.375 7.875 C10.38273437 8.92429687 10.39046875 9.97359375 10.3984375 11.0546875 C9.9591885 14.30168503 9.30984796 15.70661176 7 18 C4.3125 18.25 4.3125 18.25 2 18 C2.33 17.01 2.66 16.02 3 15 C4.32 15 5.64 15 7 15 C7.33 10.71 7.66 6.42 8 2 C6.35 2 4.7 2 3 2 C1.18884044 3.81115956 1.61800552 6.61278227 1.4375 9.0625 C1.35371094 10.16722656 1.26992188 11.27195312 1.18359375 12.41015625 C1.12300781 13.26480469 1.06242187 14.11945313 1 15 C0.67 15 0.34 15 0 15 C0 10.05 0 5.1 0 0 Z " fill="#411C33" transform="translate(467,313)"/>
<path d="M0 0 C4.62 0 9.24 0 14 0 C14.33 0.66 14.66 1.32 15 2 C15.66 2.33 16.32 2.66 17 3 C15.875 5.5 15.875 5.5 14 8 C10.8125 8.3125 10.8125 8.3125 8 8 C9.32 7.67 10.64 7.34 12 7 C12 5.02 12 3.04 12 1 C10.35 1.66 8.7 2.32 7 3 C7 2.34 7 1.68 7 1 C5.02 1 3.04 1 1 1 C1 6.94 1 12.88 1 19 C2.98 19 4.96 19 7 19 C7 19.33 7 19.66 7 20 C4.69 20 2.38 20 0 20 C0 13.4 0 6.8 0 0 Z " fill="#0A0A10" transform="translate(267,310)"/>
<path d="M0 0 C3.44050027 1.47817901 6.72486605 3.18767291 10 5 C10 5.66 10 6.32 10 7 C12.475 7.495 12.475 7.495 15 8 C15.33 8.99 15.66 9.98 16 11 C12.28881264 9.62002781 9.026539 7.89253173 5.625 5.875 C1.13922435 3.43421031 -1.82070458 1.94495834 -7 3 C-10.13489157 4.46900716 -13.07869443 6.14520281 -16 8 C-16 6.68 -16 5.36 -16 4 C-15.0925 3.71125 -14.185 3.4225 -13.25 3.125 C-10.13817857 2.15591492 -10.13817857 2.15591492 -8 0.875 C-5.01468388 -0.4310758 -3.26822376 -0.42365864 0 0 Z " fill="#3F1C33" transform="translate(310,152)"/>
<path d="M0 0 C3.65813817 0.28139524 6.31896306 0.56343786 9.4375 2.5625 C11.25611039 5.3995322 11.61719236 7.66530826 11.47265625 11.02734375 C10.68639284 14.30885632 8.55270688 15.95783449 6 18 C5.67 17.34 5.34 16.68 5 16 C5.66 15.01 6.32 14.02 7 13 C7.24107326 10.71351152 7.24107326 10.71351152 7.125 8.3125 C7.10695313 7.50425781 7.08890625 6.69601562 7.0703125 5.86328125 C7.04710937 5.24839844 7.02390625 4.63351562 7 4 C4.03 3.505 4.03 3.505 1 3 C0.67 2.01 0.34 1.02 0 0 Z " fill="#E6E6E6" transform="translate(378,311)"/>
<path d="M0 0 C0.66 0.33 1.32 0.66 2 1 C1.35256836 1.43086914 0.70513672 1.86173828 0.03808594 2.30566406 C-3.17912869 6.55880022 -2.6033016 10.91322944 -2.609375 16.109375 C-2.62591125 17.19132141 -2.64244751 18.27326782 -2.65948486 19.38800049 C-2.70805101 22.84205758 -2.72935566 26.29567411 -2.75 29.75 C-2.77815236 32.09247018 -2.80807874 34.43491977 -2.83984375 36.77734375 C-2.91381224 42.51814896 -2.96540427 48.25882982 -3 54 C-3.33 54 -3.66 54 -4 54 C-4.10137004 46.95259884 -4.17145284 39.90538548 -4.21972656 32.85742188 C-4.23984936 30.45956394 -4.26715059 28.06175512 -4.30175781 25.6640625 C-4.3502449 22.21862677 -4.37296241 18.77383948 -4.390625 15.328125 C-4.41127014 14.25508118 -4.43191528 13.18203735 -4.45318604 12.07647705 C-4.45348816 11.07574158 -4.45379028 10.0750061 -4.45410156 9.04394531 C-4.46298401 8.16458313 -4.47186646 7.28522095 -4.48101807 6.37921143 C-3.84861563 3.25122268 -2.3825782 2.03591945 0 0 Z " fill="#DD686B" transform="translate(266,176)"/>
<path d="M0 0 C0.33 1.32 0.66 2.64 1 4 C-1.6340642 5.70439448 -3.9178208 6.97552109 -6.9375 7.875 C-10.20007548 8.86656836 -10.20007548 8.86656836 -12.9375 11.5625 C-16.42305348 14.33671604 -18.61724787 14.73703487 -23 15 C-19.52408618 12.09171248 -16.00386438 9.73191805 -12.0625 7.5 C-7.93068548 5.13095715 -3.91100054 2.7159726 0 0 Z " fill="#431C35" transform="translate(350,231)"/>
<path d="M0 0 C0 0.66 0 1.32 0 2 C1.32 2.33 2.64 2.66 4 3 C2.59447701 4.03612271 1.17508306 5.05344925 -0.25 6.0625 C-1.43335938 6.91521484 -1.43335938 6.91521484 -2.640625 7.78515625 C-5 9 -5 9 -7.296875 8.68359375 C-7.85890625 8.45800781 -8.4209375 8.23242188 -9 8 C-8.875 6.25 -8.875 6.25 -8 4 C-2.77777778 0 -2.77777778 0 0 0 Z " fill="#D66161" transform="translate(377,153)"/>
<path d="M0 0 C-1 2 -1 2 -3.0390625 2.74609375 C-4.31910156 3.08833984 -4.31910156 3.08833984 -5.625 3.4375 C-9.947267 4.65469013 -13.91863005 6.13676589 -18 8 C-18.625 6.125 -18.625 6.125 -19 4 C-14.00903151 -0.99096849 -6.57219564 -0.23802721 0 0 Z " fill="#646675" transform="translate(579,308)"/>
<path d="M0 0 C6.16456476 0.37742233 9.17375515 2.15870308 14 6 C12.68 6.33 11.36 6.66 10 7 C10 6.34 10 5.68 10 5 C9.34 5 8.68 5 8 5 C8 5.99 8 6.98 8 8 C4.67689517 6.83242263 2.16638868 5.85051143 0 3 C0 2.01 0 1.02 0 0 Z " fill="#DE6762" transform="translate(214,140)"/>
<path d="M0 0 C2.5 0.125 2.5 0.125 3.5 1.125 C3.625 4.125 3.625 4.125 3.5 7.125 C2.5 8.125 2.5 8.125 0 8.25 C-2.5 8.125 -2.5 8.125 -3.5 7.125 C-3.625 4.125 -3.625 4.125 -3.5 1.125 C-2.5 0.125 -2.5 0.125 0 0 Z " fill="#171930" transform="translate(254.5,315.875)"/>
<path d="M0 0 C-7.8733741 4.93181144 -15.78400405 9.65326066 -24 14 C-22.85900474 10.57701423 -21.99914379 9.85241234 -19 8 C-18.01 8 -17.02 8 -16 8 C-16 7.34 -16 6.68 -16 6 C-13.03 5.01 -10.06 4.02 -7 3 C-7.33 2.01 -7.66 1.02 -8 0 C-4.90645403 -0.99435406 -3.09720845 -0.87840996 0 0 Z " fill="#441A31" transform="translate(288,164)"/>
<path d="M0 0 C0.66 0.66 1.32 1.32 2 2 C0.329375 1.7525 0.329375 1.7525 -1.375 1.5 C-6.84351236 1.43224852 -9.66387325 4.7118101 -13.58984375 8.15234375 C-16.85146502 10.65274385 -18.96018993 11 -23 11 C-20.30744652 7.99457939 -17.13796208 5.97528044 -13.75 3.8125 C-12.65171875 3.09707031 -11.5534375 2.38164062 -10.421875 1.64453125 C-6.58945675 -0.19730446 -4.19965868 -0.47630275 0 0 Z " fill="#D55F64" transform="translate(310,154)"/>
<path d="M0 0 C0.33 0.598125 0.66 1.19625 1 1.8125 C3.82220057 4.89928188 7.07668579 5.76988723 11 7 C11 7.66 11 8.32 11 9 C7.66666667 8.33333333 4.33333333 7.66666667 1 7 C1.99 8.98 2.98 10.96 4 13 C1.26281664 11.9963661 0.16558185 11.27095212 -1.375 8.75 C-2.17076673 5.24862639 -1.36619736 3.26369368 0 0 Z " fill="#181A2C" transform="translate(309,316)"/>
<path d="M0 0 C1.98 0.495 1.98 0.495 4 1 C4 4.3 4 7.6 4 11 C2.68 11 1.36 11 0 11 C-0.19406478 9.35492782 -0.38007935 7.70890406 -0.5625 6.0625 C-0.66691406 5.14597656 -0.77132813 4.22945313 -0.87890625 3.28515625 C-0.91886719 2.53105469 -0.95882813 1.77695312 -1 1 C-0.67 0.67 -0.34 0.34 0 0 Z " fill="#F56355" transform="translate(470,316)"/>
<path d="M0 0 C1.66666667 0.66666667 3.33333333 1.33333333 5 2 C6.36125 2.495 6.36125 2.495 7.75 3 C10 4 10 4 11 6 C11.99 6.33 12.98 6.66 14 7 C13.67 9.31 13.34 11.62 13 14 C10.36 14 7.72 14 5 14 C4.67 12.68 4.34 11.36 4 10 C6.64 10.99 9.28 11.98 12 13 C12 11.35 12 9.7 12 8 C11.319375 7.773125 10.63875 7.54625 9.9375 7.3125 C6.27461218 5.67589055 3.0916961 3.55710888 0 1 C0 0.67 0 0.34 0 0 Z " fill="#3F1B33" transform="translate(233,149)"/>
<path d="M0 0 C1.47906892 -0.02689216 2.95827483 -0.04634621 4.4375 -0.0625 C5.26121094 -0.07410156 6.08492187 -0.08570313 6.93359375 -0.09765625 C9 0 9 0 10 1 C10.07271741 3.35313555 10.08370868 5.70833668 10.0625 8.0625 C10.05347656 9.35285156 10.04445312 10.64320313 10.03515625 11.97265625 C10.02355469 12.97167969 10.01195312 13.97070312 10 15 C9.67 15 9.34 15 9 15 C8.67 11.04 8.34 7.08 8 3 C6.68 3 5.36 3 4 3 C3.67 7.29 3.34 11.58 3 16 C2.67 16 2.34 16 2 16 C1.93941406 15.18015625 1.87882813 14.3603125 1.81640625 13.515625 C1.73261719 12.43796875 1.64882812 11.3603125 1.5625 10.25 C1.48128906 9.18265625 1.40007812 8.1153125 1.31640625 7.015625 C1.05909227 4.56320038 0.68187782 2.36078709 0 0 Z " fill="#582A3D" transform="translate(136,312)"/>
<path d="M0 0 C2.97 0.99 5.94 1.98 9 3 C9 3.66 9 4.32 9 5 C10.65 5 12.3 5 14 5 C14 5.99 14 6.98 14 8 C15.134375 8.268125 16.26875 8.53625 17.4375 8.8125 C19.2009375 9.4003125 19.2009375 9.4003125 21 10 C21.33 10.99 21.66 11.98 22 13 C17.28854116 11.62433955 13.47167429 9.65654947 9.3125 7.0625 C8.19488281 6.37285156 7.07726562 5.68320313 5.92578125 4.97265625 C3 3 3 3 0 0 Z " fill="#3C1C2F" transform="translate(326,163)"/>
<path d="M0 0 C2.97 0.495 2.97 0.495 6 1 C6.33 1.99 6.66 2.98 7 4 C9.18137797 5.02450239 9.18137797 5.02450239 12 6 C13.33905411 6.67628996 14.67205928 7.36464079 16 8.0625 C18.98662055 9.58409267 21.64024934 10.58003117 25 11 C25 11.33 25 11.66 25 12 C18.13932324 12.8011797 14.21425023 10.23773162 8.5625 6.5625 C7.73556641 6.04623047 6.90863281 5.52996094 6.05664062 4.99804688 C1.77140048 2.29102069 1.77140048 2.29102069 0 1 C0 0.67 0 0.34 0 0 Z " fill="#CD5F5F" transform="translate(285,244)"/>
<path d="M0 0 C1.2065625 0.0309375 1.2065625 0.0309375 2.4375 0.0625 C1.4475 0.7225 0.4575 1.3825 -0.5625 2.0625 C-1.51083209 5.98273496 -1.72757138 9.87725375 -1.87890625 13.8984375 C-1.92080078 14.96191406 -1.96269531 16.02539062 -2.00585938 17.12109375 C-2.04517578 18.21550781 -2.08449219 19.30992188 -2.125 20.4375 C-2.16818359 21.55511719 -2.21136719 22.67273438 -2.25585938 23.82421875 C-2.36147411 26.57020199 -2.4635797 29.31626881 -2.5625 32.0625 C-2.8925 32.0625 -3.2225 32.0625 -3.5625 32.0625 C-3.58715504 27.66593827 -3.60533842 23.2694128 -3.61743164 18.87280273 C-3.62247121 17.37605082 -3.62930287 15.87930384 -3.63793945 14.38256836 C-3.65002159 12.23550193 -3.65573191 10.08850038 -3.66015625 7.94140625 C-3.66539307 6.6479126 -3.67062988 5.35441895 -3.67602539 4.02172852 C-3.52503746 0.08597652 -3.52503746 0.08597652 0 0 Z " fill="#C65E5F" transform="translate(471.5625,92.9375)"/>
<path d="M0 0 C1.65 0.33 3.3 0.66 5 1 C5 5.29 5 9.58 5 14 C3.35 14.33 1.7 14.66 0 15 C-1 14 -1 14 -1.1328125 11.09375 C-1.13023437 9.9078125 -1.12765625 8.721875 -1.125 7.5 C-1.12757813 6.3140625 -1.13015625 5.128125 -1.1328125 3.90625 C-1 1 -1 1 0 0 Z M1 1 C-0.28612676 2.05978933 -0.28612676 2.05978933 -0.09765625 4.50390625 C-0.08605469 5.51324219 -0.07445312 6.52257812 -0.0625 7.5625 C-0.05347656 8.57441406 -0.04445312 9.58632813 -0.03515625 10.62890625 C-0.02355469 11.41136719 -0.01195312 12.19382812 0 13 C1.32 13 2.64 13 4 13 C4.08090971 11.37581255 4.13914995 9.75048255 4.1875 8.125 C4.23970703 6.76761719 4.23970703 6.76761719 4.29296875 5.3828125 C4.14794922 4.20332031 4.14794922 4.20332031 4 3 C3.01 2.34 2.02 1.68 1 1 Z " fill="#D46869" transform="translate(140,314)"/>
<path d="M0 0 C0.66962769 1.02335449 0.66962769 1.02335449 1.3527832 2.06738281 C4.44055492 3.34746543 4.44055492 3.34746543 7.3527832 4.06738281 C7.3527832 4.39738281 7.3527832 4.72738281 7.3527832 5.06738281 C0.69698078 4.43947692 0.69698078 4.43947692 -1.04492188 2.55639648 C-3.30133793 0.45950764 -4.92933092 0.6397001 -7.97143555 0.55566406 C-9.51347656 0.50249023 -9.51347656 0.50249023 -11.08666992 0.44824219 C-12.69445312 0.4144043 -12.69445312 0.4144043 -14.3347168 0.37988281 C-15.41817383 0.34572266 -16.50163086 0.3115625 -17.61791992 0.27636719 C-20.294249 0.19383722 -22.97024838 0.12470344 -25.6472168 0.06738281 C-25.6472168 -0.26261719 -25.6472168 -0.59261719 -25.6472168 -0.93261719 C-21.7113749 -1.21613689 -17.77407971 -1.45366276 -13.8347168 -1.68261719 C-12.71516602 -1.76382813 -11.59561523 -1.84503906 -10.44213867 -1.92871094 C-9.36899414 -1.98671875 -8.29584961 -2.04472656 -7.19018555 -2.10449219 C-5.7055481 -2.19875488 -5.7055481 -2.19875488 -4.19091797 -2.29492188 C-1.6472168 -1.93261719 -1.6472168 -1.93261719 0 0 Z " fill="#606171" transform="translate(465.647216796875,77.9326171875)"/>
<path d="M0 0 C3.96 1.98 3.96 1.98 8 4 C7.67 5.65 7.34 7.3 7 9 C5.68 9.33 4.36 9.66 3 10 C3 6 3 6 4 4 C2.68 4.33 1.36 4.66 0 5 C0 3.35 0 1.7 0 0 Z " fill="#1F1F3E" transform="translate(575,196)"/>
<path d="M0 0 C5.28 0 10.56 0 16 0 C16.33 0.99 16.66 1.98 17 3 C18.49985609 4.66710346 18.49985609 4.66710346 20 6 C19.47792969 5.80664062 18.95585938 5.61328125 18.41796875 5.4140625 C12.36073009 3.2712215 6.33891775 2.00711777 0 1 C0 0.67 0 0.34 0 0 Z " fill="#747581" transform="translate(30,308)"/>
<path d="M0 0 C2.33294775 -0.04241723 4.66702567 -0.04092937 7 0 C8 1 8 1 8.11352539 3.40844727 C8.10828857 4.45057373 8.10305176 5.4927002 8.09765625 6.56640625 C8.09443359 7.69111328 8.09121094 8.81582031 8.08789062 9.97460938 C8.07951172 11.15861328 8.07113281 12.34261719 8.0625 13.5625 C8.05798828 14.75037109 8.05347656 15.93824219 8.04882812 17.16210938 C8.03699675 20.10812226 8.02051287 23.05403681 8 26 C7.67 26 7.34 26 7 26 C6.67 18.41 6.34 10.82 6 3 C1.39467611 1.54685336 1.39467611 1.54685336 -1 3 C-0.67 2.01 -0.34 1.02 0 0 Z " fill="#35162E" transform="translate(139,278)"/>
<path d="M0 0 C1.32 0.33 2.64 0.66 4 1 C3.01 1.598125 2.02 2.19625 1 2.8125 C0.01 3.534375 -0.98 4.25625 -2 5 C-2 5.99 -2 6.98 -2 8 C0.76276177 7.47731534 3.3260876 6.89130413 6 6 C6 6.66 6 7.32 6 8 C4.3125 9.6875 4.3125 9.6875 2 11 C-2.41025641 10.58974359 -2.41025641 10.58974359 -4 9 C-4.04092937 6.66702567 -4.04241723 4.33294775 -4 2 C-2.68 2 -1.36 2 0 2 C0 1.34 0 0.68 0 0 Z " fill="#401C36" transform="translate(217,261)"/>
<path d="M0 0 C0.66 0 1.32 0 2 0 C2 5.61 2 11.22 2 17 C1.34 17 0.68 17 0 17 C0 16.01 0 15.02 0 14 C-0.66 13.67 -1.32 13.34 -2 13 C-1.67 12.67 -1.34 12.34 -1 12 C-0.76572222 9.98405418 -0.58663876 7.961526 -0.4375 5.9375 C-0.35371094 4.83277344 -0.26992188 3.72804688 -0.18359375 2.58984375 C-0.12300781 1.73519531 -0.06242187 0.88054687 0 0 Z " fill="#FEFEFE" transform="translate(364,312)"/>
<path d="M0 0 C1.98 0 3.96 0 6 0 C6.268125 0.61875 6.53625 1.2375 6.8125 1.875 C7.95556848 4.2995233 7.95556848 4.2995233 11 6 C11.25 8.5625 11.25 8.5625 11 11 C10 12 10 12 6.4375 12.0625 C5.303125 12.041875 4.16875 12.02125 3 12 C3.33 11.01 3.66 10.02 4 9 C5.65 9.33 7.3 9.66 9 10 C9 9.01 9 8.02 9 7 C7.00184197 5.34063127 7.00184197 5.34063127 4.5 3.875 C2.98742349 2.93664235 1.48376208 1.98328677 0 1 C0 0.67 0 0.34 0 0 Z " fill="#401E36" transform="translate(390,259)"/>
<path d="M0 0 C0.66 0.33 1.32 0.66 2 1 C-1.81158824 6.00992849 -6.00028579 10.66812727 -12 13 C-14.2421875 12.625 -14.2421875 12.625 -16 12 C-15.40832031 11.68546875 -14.81664062 11.3709375 -14.20703125 11.046875 C-6.11215873 6.70518893 -6.11215873 6.70518893 0 0 Z " fill="#8D8D96" transform="translate(57,99)"/>
<path d="M0 0 C-0.25 2.375 -0.25 2.375 -1 5 C-3.0625 6.3125 -3.0625 6.3125 -5 7 C-5 6.01 -5 5.02 -5 4 C-6.32 3.67 -7.64 3.34 -9 3 C-5.92807025 0.26939578 -4.09590633 -0.34132553 0 0 Z " fill="#DA6163" transform="translate(245,248)"/>
<path d="M0 0 C-1.423125 0.9590625 -1.423125 0.9590625 -2.875 1.9375 C-6.8705059 5.19798359 -7.3772572 9.07174236 -8 14 C-8.33 14 -8.66 14 -9 14 C-9.18451025 4.58997722 -9.18451025 4.58997722 -8 0 C-2.25 -1.125 -2.25 -1.125 0 0 Z " fill="#7B7B89" transform="translate(582,138)"/>
<path d="M0 0 C4.67105792 1.55701931 8.08705685 4.08447373 12 7 C11.67 8.32 11.34 9.64 11 11 C9.35 10.67 7.7 10.34 6 10 C6.66 9.67 7.32 9.34 8 9 C8.66 9.33 9.32 9.66 10 10 C10 9.01 10 8.02 10 7 C9.278125 6.71125 8.55625 6.4225 7.8125 6.125 C5.20833333 5.08333333 2.60416667 4.04166667 0 3 C0 2.01 0 1.02 0 0 Z " fill="#D16364" transform="translate(388,259)"/>
<path d="M0 0 C1.32 0.33 2.64 0.66 4 1 C-0.8665458 4.34169478 -5.63324933 7.52303815 -11 10 C-10.34 8.35 -9.68 6.7 -9 5 C-7.68 5 -6.36 5 -5 5 C-5 4.34 -5 3.68 -5 3 C-3.68 3 -2.36 3 -1 3 C-0.67 2.01 -0.34 1.02 0 0 Z " fill="#D55F61" transform="translate(341,234)"/>
<path d="M0 0 C0.33 0.99 0.66 1.98 1 3 C-0.28813342 3.83878455 -1.58063256 4.67086783 -2.875 5.5 C-3.59429687 5.9640625 -4.31359375 6.428125 -5.0546875 6.90625 C-7 8 -7 8 -9 8 C-9 7.34 -9 6.68 -9 6 C-8.01 6 -7.02 6 -6 6 C-6 5.34 -6 4.68 -6 4 C-6.66 3.67 -7.32 3.34 -8 3 C-3.375 0 -3.375 0 0 0 Z " fill="#EB5E58" transform="translate(329,241)"/>
<path d="M0 0 C0.66 0.33 1.32 0.66 2 1 C1.505 1.639375 1.01 2.27875 0.5 2.9375 C-1.50950277 7.04023483 -1.26385672 10.51443582 -1 15 C-3.09749995 12.64031256 -3.96905704 11.45383006 -4.1875 8.25 C-4.125625 7.5075 -4.06375 6.765 -4 6 C-4.66 5.67 -5.32 5.34 -6 5 C-5.34 5 -4.68 5 -4 5 C-4 4.34 -4 3.68 -4 3 C-2 1.375 -2 1.375 0 0 Z " fill="#82828E" transform="translate(576,265)"/>
<path d="M0 0 C0.66 0.33 1.32 0.66 2 1 C1.34 2.65 0.68 4.3 0 6 C-1.65 5.67 -3.3 5.34 -5 5 C-5 5.66 -5 6.32 -5 7 C-6.98 7.33 -8.96 7.66 -11 8 C-8.83385197 5.69125289 -6.60793392 3.94709819 -3.9375 2.25 C-2.89916016 1.57710937 -2.89916016 1.57710937 -1.83984375 0.890625 C-1.23269531 0.59671875 -0.62554687 0.3028125 0 0 Z " fill="#431F38" transform="translate(325,246)"/>
<path d="M0 0 C6.4 -0.49230769 6.4 -0.49230769 9.4375 2 C10.2109375 2.99 10.2109375 2.99 11 4 C7.7 3.01 4.4 2.02 1 1 C2.73559438 4.057952 4.38472619 6.63379989 7 9 C4.03 8.505 4.03 8.505 1 8 C0.67 5.36 0.34 2.72 0 0 Z " fill="#4D2237" transform="translate(213,139)"/>
<path d="M0 0 C5.94 0.33 11.88 0.66 18 1 C18 1.33 18 1.66 18 2 C12.39 2 6.78 2 1 2 C0.67 3.32 0.34 4.64 0 6 C-1.32 6.33 -2.64 6.66 -4 7 C-3.67 6.01 -3.34 5.02 -3 4 C-2.34 4 -1.68 4 -1 4 C-0.67 2.68 -0.34 1.36 0 0 Z " fill="#545665" transform="translate(478,76)"/>
<path d="M0 0 C1.32 0 2.64 0 4 0 C4 0.66 4 1.32 4 2 C4.969375 2.12375 5.93875 2.2475 6.9375 2.375 C8.4534375 2.684375 8.4534375 2.684375 10 3 C10.33 3.66 10.66 4.32 11 5 C11.99 5.33 12.98 5.66 14 6 C14 6.66 14 7.32 14 8 C14.99 8.33 15.98 8.66 17 9 C16.01 9.495 16.01 9.495 15 10 C12.37756211 8.61511707 9.8901582 7.18421246 7.375 5.625 C6.66859375 5.19960937 5.9621875 4.77421875 5.234375 4.3359375 C3.46808541 3.25843265 1.73117753 2.1330578 0 1 C0 0.67 0 0.34 0 0 Z " fill="#D36064" transform="translate(268,234)"/>
<path d="M0 0 C4.21654356 1.48635116 7.62478605 3.61249159 11.3125 6.125 C12.38113281 6.84945312 13.44976562 7.57390625 14.55078125 8.3203125 C15.76314453 9.15175781 15.76314453 9.15175781 17 10 C16.01 10.33 15.02 10.66 14 11 C12.28125 10.0390625 12.28125 10.0390625 10.5 8.625 C8.2063377 6.82427389 6.83198518 5.94399506 4 5 C4 4.34 4 3.68 4 3 C2.68 3 1.36 3 0 3 C0 2.01 0 1.02 0 0 Z " fill="#441A31" transform="translate(220,148)"/>
<path d="M0 0 C0.66 0 1.32 0 2 0 C2 0.66 2 1.32 2 2 C2.99 2 3.98 2 5 2 C5 1.34 5 0.68 5 0 C6.32 0.33 7.64 0.66 9 1 C6.8125 3.0625 6.8125 3.0625 4 5 C1.1875 4.75 1.1875 4.75 -1 4 C-0.67 2.68 -0.34 1.36 0 0 Z " fill="#D86565" transform="translate(215,265)"/>
<path d="M0 0 C1.98 0.66 3.96 1.32 6 2 C6 2.66 6 3.32 6 4 C10.29 4.33 14.58 4.66 19 5 C19 5.33 19 5.66 19 6 C16.58063683 6.16249454 14.17218141 6.28097817 11.75 6.375 C10.72712891 6.45041016 10.72712891 6.45041016 9.68359375 6.52734375 C7.671875 6.5859375 7.671875 6.5859375 4 6 C1.515625 2.9765625 1.515625 2.9765625 0 0 Z " fill="#9596A4" transform="translate(145,339)"/>
<path d="M0 0 C0.33 0 0.66 0 1 0 C1.33 4.62 1.66 9.24 2 14 C0.35 13.67 -1.3 13.34 -3 13 C-2.01 8.71 -1.02 4.42 0 0 Z " fill="#1B1B33" transform="translate(582,124)"/>
<path d="M0 0 C1.65 0 3.3 0 5 0 C5.33 1.32 5.66 2.64 6 4 C4.35 4.33 2.7 4.66 1 5 C0.67 3.35 0.34 1.7 0 0 Z " fill="#FAFAFA" transform="translate(301,304)"/>
<path d="M0 0 C2.31 0 4.62 0 7 0 C7 0.33 7 0.66 7 1 C6.154375 1.2475 5.30875 1.495 4.4375 1.75 C0.61572526 3.13973627 -2.51868063 4.91120838 -6 7 C-6 5.35 -6 3.7 -6 2 C-4.02 2 -2.04 2 0 2 C0 1.34 0 0.68 0 0 Z " fill="#482139" transform="translate(392,139)"/>
<path d="M0 0 C-1 3 -1 3 -3.875 4.6875 C-7 6 -7 6 -10 6 C-10 5.01 -10 4.02 -10 3 C-9.05125 2.690625 -8.1025 2.38125 -7.125 2.0625 C-1.05882353 0 -1.05882353 0 0 0 Z " fill="#341B39" transform="translate(314,254)"/>
<path d="M0 0 C3.375 -0.125 3.375 -0.125 7 0 C7.66 0.66 8.32 1.32 9 2 C8.625 4.125 8.625 4.125 8 6 C6.66402348 5.19185349 5.331275 4.37836819 4 3.5625 C3.2575 3.11003906 2.515 2.65757812 1.75 2.19140625 C1.1725 1.79824219 0.595 1.40507812 0 1 C0 0.67 0 0.34 0 0 Z " fill="#361D3E" transform="translate(375,249)"/>
<path d="M0 0 C2.97 0 5.94 0 9 0 C7.35 1.65 5.7 3.3 4 5 C2.68 4.34 1.36 3.68 0 3 C0 2.01 0 1.02 0 0 Z " fill="#2F1A35" transform="translate(377,145)"/>
<path d="M0 0 C3.96 1.98 3.96 1.98 8 4 C8 4.99 8 5.98 8 7 C4.06326356 5.68775452 1.77280706 4.08089673 -1 1 C-0.67 0.67 -0.34 0.34 0 0 Z " fill="#F7645C" transform="translate(390,262)"/>
<path d="M0 0 C1.231394 3.69418201 0.64432764 6.2056261 0 10 C-3.93846154 6.67692308 -3.93846154 6.67692308 -4.25 3.25 C-4.1675 2.5075 -4.085 1.765 -4 1 C-3.01 1.33 -2.02 1.66 -1 2 C-0.67 1.34 -0.34 0.68 0 0 Z " fill="#7A7A8A" transform="translate(574,226)"/>
<path d="M0 0 C1.65 0.33 3.3 0.66 5 1 C4.42655063 3.86724686 4.1385485 4.8614515 2 7 C1.34 6.67 0.68 6.34 0 6 C0 5.01 0 4.02 0 3 C-0.99 2.67 -1.98 2.34 -3 2 C-2.01 2 -1.02 2 0 2 C0 1.34 0 0.68 0 0 Z " fill="#272847" transform="translate(473,81)"/>
<path d="M0 0 C0.721875 0.144375 1.44375 0.28875 2.1875 0.4375 C3.5796875 0.7159375 3.5796875 0.7159375 5 1 C6.66666667 1.33333333 8.33333333 1.66666667 10 2 C10.33 1.34 10.66 0.68 11 0 C11 0.99 11 1.98 11 3 C6.58937864 4.0257259 4.07369424 4.03684712 0 2 C0 1.34 0 0.68 0 0 Z " fill="#19191E" transform="translate(315,315)"/>
<path d="M0 0 C3.375 0.25 3.375 0.25 7 1 C8.4375 3.0625 8.4375 3.0625 9 5 C8.34 5.66 7.68 6.32 7 7 C4.66666667 4.66666667 2.33333333 2.33333333 0 0 Z " fill="#5E5F6E" transform="translate(32,263)"/>
<path d="M0 0 C0.66 0.33 1.32 0.66 2 1 C2.08121924 2.60332791 2.13929134 4.20784026 2.1875 5.8125 C2.22230469 6.70582031 2.25710937 7.59914062 2.29296875 8.51953125 C1.95081002 11.41647515 1.24606427 12.22555028 -1 14 C-1.66 13.67 -2.32 13.34 -3 13 C-2.505 12.154375 -2.01 11.30875 -1.5 10.4375 C0.14747708 6.66203168 0.24430947 4.07182452 0 0 Z " fill="#A8A8B3" transform="translate(39,143)"/>
<path d="M0 0 C0.66 0 1.32 0 2 0 C2.84114171 1.43294498 3.67265687 2.87154405 4.5 4.3125 C5.19609375 5.51326172 5.19609375 5.51326172 5.90625 6.73828125 C7 9 7 9 7 12 C0.29612756 4.88610478 0.29612756 4.88610478 0 0 Z " fill="#9D9EA8" transform="translate(551,92)"/>
<path d="M0 0 C0.33 0.99 0.66 1.98 1 3 C0.29875 2.855625 -0.4025 2.71125 -1.125 2.5625 C-4.07556141 1.98521625 -7.03270151 1.48304859 -10 1 C-6.1496895 -1.56687367 -4.41430237 -0.83288724 0 0 Z " fill="#16161C" transform="translate(319,322)"/>
<path d="M0 0 C1.67542976 0.28604898 3.34385343 0.61781233 5 1 C4.67 2.65 4.34 4.3 4 6 C3.34 5.34 2.68 4.68 2 4 C1.34 4.66 0.68 5.32 0 6 C-0.38218767 4.34385343 -0.71395102 2.67542976 -1 1 C-0.67 0.67 -0.34 0.34 0 0 Z " fill="#D55D58" transform="translate(140,172)"/>
<path d="M0 0 C2.475 0.99 2.475 0.99 5 2 C5 3.65 5 5.3 5 7 C3.35 6.67 1.7 6.34 0 6 C0.99 5.67 1.98 5.34 3 5 C2.2575 4.319375 2.2575 4.319375 1.5 3.625 C0 2 0 2 0 0 Z " fill="#C75F6B" transform="translate(240,155)"/>
<path d="M0 0 C-2.8125 2.0625 -2.8125 2.0625 -6 4 C-6.99 3.67 -7.98 3.34 -9 3 C-8.34 3 -7.68 3 -7 3 C-7.33 2.01 -7.66 1.02 -8 0 C-4.94736336 -0.98120464 -3.05263664 -0.98120464 0 0 Z " fill="#371A38" transform="translate(288,164)"/>
<path d="M0 0 C1.65 0 3.3 0 5 0 C5 0.66 5 1.32 5 2 C5.99 2.33 6.98 2.66 8 3 C8 3.66 8 4.32 8 5 C4.20411134 4.45773019 2.52788007 2.79872437 0 0 Z " fill="#F76258" transform="translate(235,155)"/>
<path d="M0 0 C0.33 0.66 0.66 1.32 1 2 C1.99 2.33 2.98 2.66 4 3 C3.01 3.495 3.01 3.495 2 4 C2 4.66 2 5.32 2 6 C0.68 5.34 -0.64 4.68 -2 4 C-2 3.01 -2 2.02 -2 1 C-1.34 0.67 -0.68 0.34 0 0 Z " fill="#ED605B" transform="translate(232,150)"/>
<path d="M0 0 C1.1875 1.6875 1.1875 1.6875 2 4 C0.75 6.75 0.75 6.75 -1 9 C-1.66 9 -2.32 9 -3 9 C-3.33 8.01 -3.66 7.02 -4 6 C-3.01 6 -2.02 6 -1 6 C-1.33 5.01 -1.66 4.02 -2 3 C-1.34 3 -0.68 3 0 3 C0 2.01 0 1.02 0 0 Z " fill="#5F6174" transform="translate(555,318)"/>
<path d="M0 0 C0.33 1.32 0.66 2.64 1 4 C-1.475 5.485 -1.475 5.485 -4 7 C-4 4 -4 4 -2 1.8125 C-1.34 1.214375 -0.68 0.61625 0 0 Z " fill="#351C3B" transform="translate(350,231)"/>
<path d="M0 0 C0.33 0 0.66 0 1 0 C1.1875 3.375 1.1875 3.375 1 7 C0.01 7.66 -0.98 8.32 -2 9 C-2.6875 6.75 -2.6875 6.75 -3 4 C-1.625 1.6875 -1.625 1.6875 0 0 Z " fill="#EB6361" transform="translate(350,224)"/>
<path d="M0 0 C0.66 0 1.32 0 2 0 C2 0.66 2 1.32 2 2 C3.65 2 5.3 2 7 2 C6.34 3.32 5.68 4.64 5 6 C2.5 4.6875 2.5 4.6875 0 3 C0 2.01 0 1.02 0 0 Z " fill="#F55E56" transform="translate(222,145)"/>
<path d="M0 0 C1.4540625 0.0309375 1.4540625 0.0309375 2.9375 0.0625 C2.5625 2 2.5625 2 1.9375 4.0625 C0.9475 4.5575 0.9475 4.5575 -0.0625 5.0625 C-0.0625 4.0725 -0.0625 3.0825 -0.0625 2.0625 C-1.3825 1.7325 -2.7025 1.4025 -4.0625 1.0625 C-3.0625 0.0625 -3.0625 0.0625 0 0 Z " fill="#CE5C65" transform="translate(397.0625,139.9375)"/>
<path d="M0 0 C0.33 1.32 0.66 2.64 1 4 C-0.98 4.99 -0.98 4.99 -3 6 C-3.99 5.34 -4.98 4.68 -6 4 C-4.02 2.68 -2.04 1.36 0 0 Z " fill="#868695" transform="translate(38,238)"/>
<path d="M0 0 C0.99 0.33 1.98 0.66 3 1 C3 2.65 3 4.3 3 6 C1.68 5.67 0.36 5.34 -1 5 C-0.67 3.35 -0.34 1.7 0 0 Z " fill="#321C35" transform="translate(440,204)"/>
<path d="M0 0 C0.66 0.33 1.32 0.66 2 1 C1.360625 1.556875 0.72125 2.11375 0.0625 2.6875 C-2.19680987 5.22066561 -2.63149047 6.68341424 -3 10 C-3.33 10 -3.66 10 -4 10 C-4.25 7.25 -4.25 7.25 -4 4 C-2 1.625 -2 1.625 0 0 Z " fill="#CF6169" transform="translate(266,176)"/>
<path d="M0 0 C3.93673644 1.31224548 6.22719294 2.91910327 9 6 C8.01 6 7.02 6 6 6 C6 5.34 6 4.68 6 4 C5.071875 3.7834375 5.071875 3.7834375 4.125 3.5625 C2 3 2 3 0 2 C0 1.34 0 0.68 0 0 Z " fill="#D96064" transform="translate(334,169)"/>
<path d="M0 0 C2.97 0.99 5.94 1.98 9 3 C8.67 3.99 8.34 4.98 8 6 C6.66402348 5.19185349 5.331275 4.37836819 4 3.5625 C3.2575 3.11003906 2.515 2.65757812 1.75 2.19140625 C1.1725 1.79824219 0.595 1.40507812 0 1 C0 0.67 0 0.34 0 0 Z " fill="#471F38" transform="translate(326,163)"/>
<path d="M0 0 C0.33 0 0.66 0 1 0 C2 7.625 2 7.625 2 11 C1.01 10.67 0.02 10.34 -1 10 C-1.02689216 8.52093108 -1.04634621 7.04172517 -1.0625 5.5625 C-1.07410156 4.73878906 -1.08570313 3.91507813 -1.09765625 3.06640625 C-1 1 -1 1 0 0 Z " fill="#313346" transform="translate(572,143)"/>
<path d="M0 0 C5.445 1.485 5.445 1.485 11 3 C11 3.33 11 3.66 11 4 C7.75 4.25 7.75 4.25 4 4 C2.68 2.68 1.36 1.36 0 0 Z " fill="#D76362" transform="translate(299,252)"/>
<path d="M0 0 C3.465 1.98 3.465 1.98 7 4 C4 5 4 5 0 5 C0 3.35 0 1.7 0 0 Z " fill="#7A7B89" transform="translate(575,196)"/>
<path d="M0 0 C2.31 0 4.62 0 7 0 C7 1.32 7 2.64 7 4 C4.97954558 3.39816251 2.97888961 2.72693904 1 2 C0.67 1.34 0.34 0.68 0 0 Z " fill="#1A1B34" transform="translate(576,114)"/>
</svg>
